<?xml version="1.0" encoding="iso-8859-1"?>
<!-- Generator: Adobe Illustrator 18.1.0, SVG Export Plug-In . SVG Version: 6.00 Build 0)  -->
<svg version="1.1" id="Layer_1" xmlns="http://www.w3.org/2000/svg" xmlns:xlink="http://www.w3.org/1999/xlink" x="0px" y="0px"
	 viewBox="718 -628 2048 2048" style="enable-background:new 718 -628 2048 2048;" xml:space="preserve">
<path style="fill:#FFFFFF;" d="M2517,66c0,26.667-9.333,49.333-28,68l-724,724l-136,136c-18.667,18.667-41.333,28-68,28
	s-49.333-9.333-68-28l-136-136L995,496c-18.667-18.667-28-41.333-28-68s9.333-49.333,28-68l136-136c18.667-18.667,41.333-28,68-28
	s49.333,9.333,68,28l294,295l656-657c18.667-18.667,41.333-28,68-28s49.333,9.333,68,28L2489-2C2507.667,16.667,2517,39.333,2517,66
	z"/>
</svg>
