<?xml version="1.0" encoding="UTF-8" standalone="no"?>
<svg width="276px" height="253px" viewBox="0 0 276 253" version="1.1" xmlns="http://www.w3.org/2000/svg" xmlns:xlink="http://www.w3.org/1999/xlink" xmlns:sketch="http://www.bohemiancoding.com/sketch/ns">
    <!-- Generator: Sketch 3.3.2 (12043) - http://www.bohemiancoding.com/sketch -->
    <title>icon-speaker</title>
    <desc>Created with Sketch.</desc>
    <defs>
        <path id="path-1" d="M135.279248,94.1552193 C131.337493,94.1552193 127.744567,88.9887254 125.023709,82.4515291 C121.849376,74.8599463 119.826174,63.788888 119.826174,51.4877121 C119.826174,39.1162437 121.849376,28.0100392 125.058592,20.4184564 C127.779449,13.9515525 131.372376,10.0503224 135.279248,10.0503224 C139.221003,10.0503224 142.779047,13.9866987 145.534787,20.4184564 C148.744004,28.0100392 150.767205,39.1162437 150.767205,51.4877121 C150.767205,63.788888 148.744004,74.8599463 145.56967,82.4515291 C142.848813,88.9535792 139.221003,94.1552193 135.279248,94.1552193 Z"></path>
    </defs>
    <g id="Page-1" stroke="none" stroke-width="1" fill="none" fill-rule="evenodd" sketch:type="MSPage">
        <g id="icon-speaker" sketch:type="MSLayerGroup" transform="translate(1.000000, 0.000000)">
            <g id="Path-12-+-Path-12-Copy-+-Path-12-+-Path-12-Copy-2-+-Path-12-+-Path-12-Copy-3" transform="translate(216.251755, 126.563025) rotate(-90.000000) translate(-216.251755, -126.563025) translate(89.751755, 68.063025)" stroke="#F93469" stroke-dasharray="3" fill="#FFFFFF" sketch:type="MSShapeGroup">
                <path d="M0.699766759,35.642844 C0.699766759,35.642844 36.4571123,116.145866 126.376462,116.145866 C216.295812,116.145866 252.053158,35.642844 252.053158,35.642844" id="Path-12"></path>
                <path d="M30.4874247,18.8049434 C30.4874247,18.8049434 57.8248448,80.3515963 126.570525,80.3515963 C195.316205,80.3515963 222.653626,18.8049434 222.653626,18.8049434" id="Path-12"></path>
                <path d="M54.3892827,0.581596188 C54.3892827,0.581596188 74.8923477,46.7415858 126.451608,46.7415858 C178.010868,46.7415858 198.513933,0.581596188 198.513933,0.581596188" id="Path-12"></path>
            </g>
            <g id="Group" transform="translate(0.000000, 72.315497)">
                <path d="M13.6361039,51.4730055 C13.6361039,37.1652548 22.3996667,24.7768365 34.8789803,19.5422936 L32.1798029,19.5422936 C17.7725055,19.5422936 5.85406001,30.9884942 3.75080492,45.7848022 C1.64754982,46.1337717 0,48.5416614 0,51.4032116 C0,54.4043495 1.78776683,56.7773423 4.06629318,56.9518271 C6.59019929,69.6543179 16.3703355,79.9140221 28.4991065,80.9609307 L28.5341608,80.9609307 C29.0249203,80.9609307 29.5156798,81.1703124 30.0064393,81.2750032 C30.3920361,81.3447972 30.7776329,81.4145911 31.1632296,81.5192819 C20.6820084,75.551903 13.6361039,64.3499811 13.6361039,51.4730055 L13.6361039,51.4730055 Z" id="Shape" stroke="#1EA2FF" fill="#FFFFFF" sketch:type="MSShapeGroup"></path>
                <path d="M154.491933,20.7362679 C154.102407,19.7170276 153.67747,18.7680798 153.252533,17.8191319 C150.950792,12.7580767 148.153291,8.68111556 144.966264,5.65854091 C141.000187,1.96818814 136.432115,0 131.722398,0 C128.783251,0 125.914927,0.77321677 123.188249,2.24935788 C123.188249,2.24935788 123.188249,2.24935788 123.152837,2.24935788 C122.7279,2.49538139 122.302964,2.7062587 121.878027,2.95228221 C104.526437,13.1446851 85.0147519,19.1898344 64.2990787,20.3145133 C61.9973372,20.4550982 59.6955958,20.3848058 57.3938543,20.3848058 L42.4148291,20.3848058 C30.3749507,25.6567383 21.5220989,38.1336453 21.5220989,52.5435942 C21.5220989,65.4774019 28.3210891,76.82963 38.4487515,82.8044868 C43.0522344,86.6354245 53.2153083,86.9165942 52.6133143,91.2044327 C51.9404976,95.8437333 50.665687,98.9014541 49.8512246,101.994321 C49.3908763,103.68134 41.4941325,127.615913 40.8921386,152.850897 C40.8921386,153.553821 40.8921386,154.151307 40.9629614,155.170547 C41.0337842,156.189788 41.7420124,157.419905 43.972931,157.419905 L71.1688917,157.419905 C73.5060445,157.419905 74.6037982,156.26008 74.4621525,154.151307 C74.3913297,153.483529 74.2496841,152.64002 74.1788613,151.866803 C73.3289875,143.748027 72.5499366,134.363987 73.0102848,123.18749 C73.4706331,111.237776 74.851678,104.946603 75.4890833,101.642859 C76.2327229,97.9876525 78.1803503,93.7701065 79.7738636,90.9935554 C90.680577,91.3098713 112.671061,97.7767752 120.532393,101.150812 C120.532393,101.150812 123.082015,102.345783 124.108945,102.978415 C126.587744,104.173387 129.137365,104.770872 131.757809,104.770872 C132.076512,104.770872 132.395215,104.770872 132.713917,104.735726 C137.06952,104.489703 141.283478,101.326543 145.001676,97.8822139 C148.224114,94.8947854 150.986203,90.7826781 153.287945,85.7216228 C153.712882,84.7375288 154.137819,83.7534347 154.527344,82.6990482 C157.926839,73.912494 159.768232,63.052313 159.768232,51.7352312 C159.768232,40.4181493 157.926839,29.5228221 154.491933,20.7362679 L154.491933,20.7362679 Z" id="Shape" stroke="#1EA2FF" fill="#FFFFFF" sketch:type="MSShapeGroup"></path>
                <g id="Path">
                    <use stroke="#F93469" stroke-width="1" fill="#FFFFFF" fill-rule="evenodd" sketch:type="MSShapeGroup" xlink:href="#path-1"></use>
                    <use stroke="none" fill="none" xlink:href="#path-1"></use>
                </g>
            </g>
        </g>
    </g>
</svg>