<?xml version="1.0" encoding="UTF-8" standalone="no"?>
<svg width="261px" height="261px" viewBox="0 0 261 261" version="1.1" xmlns="http://www.w3.org/2000/svg" xmlns:xlink="http://www.w3.org/1999/xlink" xmlns:sketch="http://www.bohemiancoding.com/sketch/ns">
    <!-- Generator: Sketch 3.3.2 (12043) - http://www.bohemiancoding.com/sketch -->
    <title>icon-chat</title>
    <desc>Created with Sketch.</desc>
    <defs>
        <linearGradient x1="50%" y1="0%" x2="50%" y2="97.4469866%" id="linearGradient-1">
            <stop stop-color="#FFFFFF" offset="0%"></stop>
            <stop stop-color="#F1F1F1" offset="100%"></stop>
        </linearGradient>
        <path id="path-2" d="M9.96153846,9.96153846 L169.346154,9.96153846 L169.346154,69.7307692 L179.307692,69.7307692 L179.307692,0 L0,0 L0,139.461538 L69.7307692,139.461538 L69.7307692,129.5 L9.96153846,129.5 L9.96153846,9.96153846 Z"></path>
        <path id="path-3" d="M79.6923077,79.6923077 L79.6923077,219.153846 L180.926442,219.153846 L220.772596,259 L229.115385,259 L229.115385,219.153846 L259,219.153846 L259,79.6923077 L79.6923077,79.6923077 L79.6923077,79.6923077 Z"></path>
    </defs>
    <g id="Page-1" stroke="none" stroke-width="1" fill="none" fill-rule="evenodd" sketch:type="MSPage">
        <g id="icon-chat" sketch:type="MSLayerGroup" transform="translate(1.000000, 1.000000)">
            <g id="Group">
                <g id="Shape">
                    <use stroke="#1EA2FF" stroke-width="1" fill="url(#linearGradient-1)" fill-rule="evenodd" sketch:type="MSShapeGroup" xlink:href="#path-2"></use>
                    <use stroke="none" fill="none" xlink:href="#path-2"></use>
                </g>
                <g id="Shape">
                    <use stroke="#1EA2FF" stroke-width="1" fill="url(#linearGradient-1)" fill-rule="evenodd" sketch:type="MSShapeGroup" xlink:href="#path-3"></use>
                    <use stroke="none" fill="none" xlink:href="#path-3"></use>
                </g>
                <path d="M218.489744,207.914193 L218.489744,241.733333 L184.246955,207.914193 L88.9897436,207.914193 L88.9897436,88.9897436 L248.374359,88.9897436 L248.374359,207.914193 L218.489744,207.914193 Z" id="Path" stroke="#F93469" stroke-dasharray="3" fill="#FFFFFF" sketch:type="MSShapeGroup"></path>
                <circle id="Oval-1" stroke="#F93469" fill="#FFFFFF" sketch:type="MSShapeGroup" cx="128" cy="149" r="9"></circle>
                <circle id="Oval-1-Copy-2" stroke="#F93469" fill="#FFFFFF" sketch:type="MSShapeGroup" cx="170" cy="149" r="9"></circle>
                <circle id="Oval-1-Copy-3" stroke="#F93469" fill="#FFFFFF" sketch:type="MSShapeGroup" cx="212" cy="149" r="9"></circle>
            </g>
        </g>
    </g>
</svg>