<svg xmlns="http://www.w3.org/2000/svg" viewBox="0 0 433.046 69.37" enable-background="new 0 0 433.046 69.37"><path d="M402.063 14.491c-9.245 0-16.992 6.322-19.212 14.872h-147.116c-2.22-8.55-9.968-14.872-19.212-14.872-9.245 0-16.992 6.322-19.212 14.872h-147.115c-2.22-8.55-9.968-14.872-19.212-14.872-10.975 0-19.872 8.897-19.872 19.872s8.897 19.872 19.872 19.872c9.245 0 16.992-6.322 19.212-14.872h147.115c2.22 8.55 9.968 14.872 19.212 14.872 9.245 0 16.992-6.322 19.212-14.872h147.115c2.22 8.55 9.968 14.872 19.212 14.872 10.975 0 19.872-8.897 19.872-19.872s-8.897-19.872-19.871-19.872z" fill="#D1D3D4"/><circle cx="30.984" cy="34.363" r="14.646" stroke="#EE325A" stroke-width="1.5" stroke-miterlimit="10" fill="none"/><circle cx="216.523" cy="34.363" r="14.646" stroke="#EE325A" stroke-width="1.5" stroke-miterlimit="10" fill="none"/><circle cx="402.063" cy="34.363" r="14.646" stroke="#EE325A" stroke-width="1.5" stroke-miterlimit="10" fill="none"/><path stroke="#EE325A" stroke-width="1.5" stroke-miterlimit="10" fill="none" d="M45.63 34.363h156.247M231.169 34.363h156.248"/><path d="M38.192 30.996c0 .248-.087.459-.26.632l-6.734 6.734-1.265 1.265c-.174.174-.384.26-.632.26s-.459-.087-.632-.26l-1.265-1.265-3.367-3.367c-.174-.174-.26-.384-.26-.632s.087-.459.26-.632l1.265-1.265c.174-.174.384-.26.632-.26s.459.087.632.26l2.734 2.744 6.101-6.11c.174-.174.384-.26.632-.26s.459.087.632.26l1.265 1.265c.175.172.262.383.262.631zM223.731 30.996c0 .248-.087.459-.26.632l-6.734 6.734-1.265 1.265c-.174.174-.384.26-.632.26s-.459-.087-.632-.26l-1.265-1.265-3.367-3.367c-.174-.174-.26-.384-.26-.632s.087-.459.26-.632l1.265-1.265c.174-.174.384-.26.632-.26s.459.087.632.26l2.734 2.744 6.101-6.11c.174-.174.384-.26.632-.26s.459.087.632.26l1.265 1.265c.175.172.262.383.262.631zM409.271 30.996c0 .248-.087.459-.26.632l-6.734 6.734-1.265 1.265c-.174.174-.384.26-.632.26s-.459-.087-.632-.26l-1.265-1.265-3.367-3.367c-.174-.174-.26-.384-.26-.632s.087-.459.26-.632l1.265-1.265c.174-.174.384-.26.632-.26s.459.087.632.26l2.734 2.744 6.101-6.11c.174-.174.384-.26.632-.26s.459.087.632.26l1.265 1.265c.175.172.262.383.262.631z" fill="#EE325A"/></svg>