<svg
  width="70"
  height="70"
  viewBox="0 0 1900 1900"
  xmlns="http://www.w3.org/2000/svg"
>
  <filter id="dropshadow" x="-20%" y="-20%" width="140%" height="140%">
    <feGaussianBlur in="SourceAlpha" result="blur-out" stdDeviation="50" />
    <feOffset in="blur-out" result="the-shadow" dx="50" dy="50" />
    <feColorMatrix
      in="the-shadow"
      result="color-out"
      type="matrix"
      values="0.05 0 0 0   0.05 0 0 0 0   0.05 0 0 0 0   0 0 0 0 .14 0"
    />
    <feBlend in="SourceGraphic" in2="color-out" mode="normal" />
  </filter>
  <path
    id="facebook"
    d="M1376 128q119 0 203.5 84.5t84.5 203.5v960q0 119-84.5 203.5t-203.5 84.5h-188v-595h199l30-232h-229v-148q0-56 23.5-84t91.5-28l122-1v-207q-63-9-178-9-136 0-217.5 80t-81.5 226v171h-200v232h200v595h-532q-119 0-203.5-84.5t-84.5-203.5v-960q0-119 84.5-203.5t203.5-84.5h960z"
    fill="#fff"
    style="filter:url(#dropshadow)"
  />
</svg>
