<svg
  style="stroke-width: 2px;"
  viewBox="0 0 331 223"
  xmlns="http://www.w3.org/2000/svg"
>
  <defs>
    <linearGradient x1="50%" y1="0%" x2="50%" y2="100%" id="a4">
      <stop stop-color="#F85528" offset="0%"></stop>
      <stop stop-color="#F93468" offset="100%"></stop>
    </linearGradient>
  </defs>
  <g fill="none">
    <path
      d="M218.535 1.126c61.129 0 110.676 49.369 110.676 110.3s-49.547 110.297-110.676 110.297c-61.123 0-110.68-49.367-110.68-110.297 0-60.931 49.557-110.3 110.68-110.3z"
      stroke="url(#a4)"
      fill="#fff"
    ></path>
    <path
      d="M1.278 37.901h184.466v24.497h-118.884v32.694h114.771v24.51h-114.771v40.848h118.884v24.509h-184.466v-147.058"
      stroke="#1EA2FF"
    ></path>
    <path
      d="M210.335 37.901v65.352h12.29v-24.523h8.213v-12.244h-8.213v-16.354h12.292v-12.231h-24.582"
      stroke="#F93469"
    ></path>
    <path
      d="M210.335 184.958h12.29v-24.509h8.213v-12.261h-8.213v-16.344h12.292v-12.243h-24.582v65.357z"
      stroke="#F93469"
    ></path>
  </g>
</svg>
