<svg
  viewBox="0 0 276 253"
  xmlns="http://www.w3.org/2000/svg"
  xmlns:xlink="http://www.w3.org/1999/xlink"
>
  <defs>
    <linearGradient x1="50%" y1="0%" x2="50%" y2="97.447%" id="b3">
      <stop stop-color="#fff" offset="0%" />
      <stop stop-color="#F1F1F1" offset="100%" />
    </linearGradient>
    <linearGradient x1="50%" y1="0%" x2="50%" y2="85.947%" id="a3">
      <stop stop-color="#1BA0FD" offset="0%" />
      <stop stop-color="#F93468" offset="100%" />
    </linearGradient>
    <path
      id="c3"
      d="M13.636 51.473c0-14.308 8.764-26.696 21.243-31.931h-2.699c-14.407 0-26.326 11.446-28.429 26.243-2.103.349-3.751 2.757-3.751 5.618 0 3.001 1.788 5.374 4.066 5.549 2.524 12.702 12.304 22.962 24.433 24.009h.035c.491 0 .982.209 1.472.314.386.07.771.14 1.157.244-10.481-5.967-17.527-17.169-17.527-30.046z"
    />
    <path
      id="d3"
      d="M154.492 20.736c-.39-1.019-.814-1.968-1.239-2.917-2.302-5.061-5.099-9.138-8.286-12.161-3.966-3.69-8.534-5.659-13.244-5.659-2.939 0-5.807.773-8.534 2.249h-.035l-1.275.703c-17.352 10.192-36.863 16.238-57.579 17.362-2.302.141-4.603.07-6.905.07h-14.979c-12.04 5.272-20.893 17.749-20.893 32.159 0 12.934 6.799 24.286 16.927 30.261 4.603 3.831 14.767 4.112 14.165 8.4-.673 4.639-1.948 7.697-2.762 10.79-.46 1.687-8.357 25.622-8.959 50.857 0 .703 0 1.3.071 2.32.071 1.019.779 2.249 3.01 2.249h27.196c2.337 0 3.435-1.16 3.293-3.269-.071-.668-.212-1.511-.283-2.285-.85-8.119-1.629-17.503-1.169-28.679.46-11.95 1.841-18.241 2.479-21.545.744-3.655 2.691-7.873 4.285-10.649 10.907.316 32.897 6.783 40.759 10.157 0 0 2.55 1.195 3.577 1.828 2.479 1.195 5.028 1.792 7.649 1.792.319 0 .637 0 .956-.035 4.356-.246 8.57-3.409 12.288-6.854 3.222-2.987 5.985-7.1 8.286-12.161.425-.984.85-1.968 1.239-3.023 3.399-8.787 5.241-19.647 5.241-30.964s-1.841-22.212-5.276-30.999z"
    />
    <linearGradient x1="50%" y1="0%" x2="50%" y2="97.447%" id="e3">
      <stop stop-color="#fff" offset="0%" />
      <stop stop-color="#F7F7F7" offset="100%" />
    </linearGradient>
  </defs>
  <g fill="none">
    <g stroke="#F93469" fill-opacity=".99" stroke-dasharray="7" fill="none">
      <path
        d="M194.395 252.363s80.503-35.757 80.503-125.677c0-89.919-80.503-125.677-80.503-125.677M177.557 222.576s61.547-27.337 61.547-96.083-61.547-96.083-61.547-96.083M159.334 198.674s46.16-20.503 46.16-72.062-46.16-72.062-46.16-72.062"
      />
    </g>
    <g>
      <g id="Shape" transform="translate(1) translate(0 72.315)">
        <use
          stroke="url(#a3)"
          stroke-width="2"
          fill="url(#b3)"
          xlink:href="#c3"
        />
        <use xlink:href="#c3" />
      </g>
      <g transform="translate(1) translate(0 72.315)">
        <use stroke="url(#a3)" stroke-width="2" fill="#fff" xlink:href="#d3" />
        <use xlink:href="#d3" />
      </g>
      <path
        d="M136.279 166.47c-3.942 0-7.535-5.166-10.256-11.704-3.174-7.592-5.198-18.663-5.198-30.964 0-12.371 2.023-23.478 5.232-31.069 2.721-6.467 6.314-10.368 10.221-10.368 3.942 0 7.5 3.936 10.256 10.368 3.209 7.592 5.232 18.698 5.232 31.069 0 12.301-2.023 23.372-5.198 30.964-2.721 6.502-6.349 11.704-10.29 11.704z"
        stroke="#1EA2FF"
        stroke-width="2"
        fill="url(#e3)"
      />
    </g>
  </g>
</svg>
