<?xml version="1.0" standalone="no"?>
<!DOCTYPE svg PUBLIC "-//W3C//DTD SVG 1.1//EN" "http://www.w3.org/Graphics/SVG/1.1/DTD/svg11.dtd" >
<svg xmlns="http://www.w3.org/2000/svg" xmlns:xlink="http://www.w3.org/1999/xlink" version="1.1">
<metadata></metadata>
<defs>
<font id="source_serif_proregular" horiz-adv-x="1021" >
<font-face units-per-em="2048" ascent="1495" descent="-553" />
<missing-glyph horiz-adv-x="477" />
<glyph unicode="&#xfb01;" horiz-adv-x="1263" d="M72 860v90l170 23q8 82 19 147.5t29.5 118.5t46.5 96t69 80q74 68 160.5 93.5t174.5 25.5q68 0 125.5 -14.5t100.5 -41t68.5 -64.5t25.5 -83q-8 -35 -35 -58.5t-70 -23.5q-39 0 -70.5 21.5t-60.5 62.5l-86 117q-145 -8 -231 -98q-53 -55 -77.5 -145.5t-20.5 -237.5h409 l211 37l31 -21l-6 -278v-277q0 -68 1 -159t3 -169l141 -28v-74h-475v74l154 28q2 78 3 169t1 159v105v96t-1 81t-2 73.5t-3 74.5h-463v-430q0 -82 1 -163t3 -163l182 -30v-74h-526v74l162 28q2 82 3 164t1 164v430h-168z" />
<glyph unicode="&#xfb02;" horiz-adv-x="1253" d="M72 860v90l170 23q8 84 19 150.5t31.5 120.5t50.5 98t73 81q78 66 158.5 88.5t152.5 22.5q70 0 133.5 -17.5t97.5 -52.5l58 29l28 -16l-8 -291v-756q0 -82 1 -164t3 -164l162 -28v-74h-506v74l162 28q2 82 3 164t1 164v899q-49 4 -105.5 29.5t-111.5 73.5l-12 10 q-37 -16 -65.5 -36t-55.5 -48q-59 -66 -82.5 -157t-19.5 -232h280v-109h-276v-430q0 -82 1 -163t3 -163l182 -30v-74h-526v74l162 28q2 82 3 164t1 164v430h-168z" />
<glyph horiz-adv-x="0" />
<glyph horiz-adv-x="682" />
<glyph horiz-adv-x="0" />
<glyph horiz-adv-x="0" />
<glyph unicode="&#xd;" horiz-adv-x="477" />
<glyph unicode=" "  horiz-adv-x="477" />
<glyph unicode="&#x09;" horiz-adv-x="477" />
<glyph unicode="&#xa0;" horiz-adv-x="477" />
<glyph unicode="!" horiz-adv-x="591" d="M164 102q0 53 39 93.5t94 40.5t93 -40t38 -94q0 -53 -38 -93t-93 -40t-94 40t-39 93zM178 1272q0 68 33 98.5t86 30.5t85 -31t32 -98q0 -57 -14.5 -196.5t-37.5 -354.5l-28 -279h-76l-27 279q-23 215 -38 354t-15 197z" />
<glyph unicode="&#x22;" horiz-adv-x="729" d="M82 1380q0 68 28.5 98.5t77.5 30.5q47 0 76 -30.5t29 -98.5q0 -31 -5 -80t-13.5 -102t-15.5 -101t-11 -73l-23 -145h-75l-23 145q-4 25 -11 73t-15.5 101t-13.5 102.5t-5 79.5zM436 1380q0 68 28.5 98.5t77.5 30.5q47 0 76 -30.5t29 -98.5q0 -31 -5 -80t-13.5 -102 t-15.5 -101t-11 -73l-23 -145h-75l-23 145q-4 25 -11 73t-15.5 101t-13.5 102.5t-5 79.5z" />
<glyph unicode="#" horiz-adv-x="1075" d="M51 367v168h211l41 266h-188v168h213l57 362h96l-57 -362h321l56 362h96l-55 -362h182v-168h-209l-41 -266h187v-168h-211l-58 -367h-96l57 367h-321l-58 -367h-96l58 367h-185zM358 535h320l41 266h-320z" />
<glyph unicode="$" d="M102 268q31 66 97 66q37 0 69.5 -27.5t48.5 -107.5l25 -113q37 -10 72 -13t69 -5v510l-22 8q-164 57 -254 147t-90 246q0 74 27.5 138.5t76.5 113.5t118 79.5t153 37.5v186h86v-186q139 -14 231 -93t102 -202q-14 -35 -38.5 -50.5t-55.5 -15.5q-35 0 -69.5 27.5 t-51.5 109.5l-24 113q-47 8 -94 12v-499l8 -2q104 -37 173.5 -79t111.5 -92.5t59.5 -107.5t17.5 -121q0 -76 -25.5 -141.5t-74.5 -114.5t-120 -79.5t-161 -39.5v-209h-84v205q-80 2 -148.5 24.5t-118.5 61.5t-81 93.5t-33 119.5zM283 1022q0 -96 54 -151.5t155 -90.5v465 q-92 -12 -150.5 -67.5t-58.5 -155.5zM567 72q100 14 157.5 74.5t57.5 160.5q0 90 -51 143.5t-164 96.5v-475z" />
<glyph unicode="%" horiz-adv-x="1765" d="M141 928q0 111 24.5 190.5t65.5 130t92.5 74t106.5 23.5t106.5 -23.5t91 -74t63.5 -130.5t24 -190q0 -111 -24 -190.5t-63.5 -130t-91 -74t-106.5 -23.5t-106.5 23.5t-92.5 74t-65.5 130t-24.5 190.5zM291 928q0 -109 12 -177.5t31.5 -106.5t44 -51t51.5 -13t51.5 13 t42.5 51t29.5 106.5t11.5 177.5t-11.5 177.5t-29.5 106t-43 51t-51 13.5q-27 0 -51.5 -13.5t-44 -51t-31.5 -105t-12 -178.5zM389 2l953 1368l63 -51l-952 -1370zM1051 408q0 111 24.5 190.5t65.5 130t92.5 74t106.5 23.5t106.5 -23.5t91 -74t63.5 -130.5t24 -190 q0 -111 -24 -190.5t-63.5 -130t-91 -74t-106.5 -23.5t-106.5 23.5t-92.5 74t-65.5 130t-24.5 190.5zM1201 408q0 -109 12 -177.5t31.5 -106.5t44 -51t51.5 -13t51.5 13t42.5 51t29.5 106.5t11.5 177.5t-11.5 177.5t-29.5 106t-43 51t-51 13.5q-27 0 -51.5 -13.5t-44 -51 t-31.5 -105t-12 -178.5z" />
<glyph unicode="&#x26;" horiz-adv-x="1478" d="M53 358q0 137 85 237.5t247 184.5l-18 19q-76 78 -124 150.5t-48 164.5q0 66 25.5 119t71.5 90t108.5 57.5t136.5 20.5q147 0 226 -73t79 -189q0 -102 -60.5 -184.5t-195.5 -159.5l151 -160q47 -49 105.5 -116.5t120.5 -139.5q72 111 127 229.5t100 247.5l-201 29v84h441 v-84l-142 -23q-53 -150 -119.5 -285t-152.5 -262q43 -53 85 -103t79 -95l221 -43v-74q-33 -10 -70 -15t-80 -5q-104 0 -162.5 31.5t-107.5 90.5q-16 20 -33.5 39t-34.5 37q-35 -43 -76.5 -81t-94 -66.5t-114 -45t-134.5 -16.5q-98 0 -179.5 31t-139.5 84t-90 124t-32 150z M233 414q0 -59 20.5 -115.5t58.5 -100.5t93 -71t127 -27q98 0 180.5 44t141.5 104q-53 66 -107.5 129t-119.5 135q-49 53 -95.5 105.5t-93.5 105.5q-59 -33 -99 -71t-63.5 -77.5t-33 -80.5t-9.5 -80zM340 1153q0 -53 27.5 -105.5t87.5 -115.5l77 -82q80 59 127.5 129 t47.5 154q0 92 -50.5 143t-128.5 51q-80 0 -134 -48t-54 -126z" />
<glyph unicode="'" horiz-adv-x="374" d="M82 1380q0 68 28.5 98.5t77.5 30.5q47 0 76 -30.5t29 -98.5q0 -31 -5 -80t-13.5 -102t-15.5 -101t-11 -73l-23 -145h-75l-23 145q-4 25 -11 73t-15.5 101t-13.5 102.5t-5 79.5z" />
<glyph unicode="(" horiz-adv-x="694" d="M160 569q0 561 430 961l53 -43q-90 -133 -150.5 -247t-97.5 -222.5t-52 -218t-15 -230.5t15 -230.5t52 -218t97.5 -223t150.5 -245.5l-53 -43q-430 399 -430 960z" />
<glyph unicode=")" horiz-adv-x="694" d="M51 -348q90 131 150.5 245.5t97.5 223t52.5 218t15.5 230.5t-15.5 230.5t-52.5 218t-97.5 222.5t-150.5 247l53 43q430 -399 431 -961q0 -561 -431 -960z" />
<glyph unicode="*" horiz-adv-x="901" d="M41 1212q0 31 18.5 52.5t49.5 21.5q35 0 90 -28.5t133 -67.5l88 -43l-14 96q-10 70 -18.5 127t-8.5 86q0 41 19.5 57.5t52.5 16.5q31 0 52 -16.5t21 -57.5q0 -29 -10 -86t-20 -127l-15 -96l88 43q78 39 135.5 66.5t90.5 27.5q29 0 48 -20.5t19 -51.5q0 -29 -18.5 -46 t-52 -27.5t-83 -17.5t-110.5 -15l-98 -16l69 -72q72 -72 119 -118t47 -89q0 -31 -21.5 -48.5t-47.5 -17.5q-47 0 -82 60.5t-86 163.5l-45 86l-45 -86q-53 -102 -87 -163t-83 -61q-27 0 -48.5 17.5t-21.5 48.5q0 43 47 89t119 118l69 72l-96 16q-125 18 -194.5 34.5 t-69.5 71.5z" />
<glyph unicode="+" horiz-adv-x="1085" d="M59 616v119h420v449h127v-449h420v-119h-420v-458h-127v458h-420z" />
<glyph unicode="," horiz-adv-x="614" d="M12 -393q106 53 185 128t116 191l-75 58q-41 35 -59.5 72.5t-18.5 76.5q0 53 31.5 91t95.5 38q29 0 59.5 -12t69.5 -47q10 -39 16 -75t6 -75q0 -92 -34.5 -174t-90 -148.5t-127 -115.5t-145.5 -76z" />
<glyph unicode="-" horiz-adv-x="638" d="M82 446v136h475v-136h-475z" />
<glyph unicode="." horiz-adv-x="614" d="M162 115q0 61 42 104t103 43t103.5 -43t42.5 -104q0 -59 -42.5 -102.5t-103.5 -43.5t-103 43t-42 103z" />
<glyph unicode="/" horiz-adv-x="675" d="M4 -328l547 1782h121l-547 -1782h-121z" />
<glyph unicode="0" d="M84 659q0 190 37 322.5t96 213.5t137 118t160 37q80 0 158 -37t137 -118t96 -213t37 -323q0 -190 -37 -322t-96 -213t-137 -118t-158 -37q-82 0 -160 37t-137 118t-96 213t-37 322zM274 659q0 -180 19.5 -295.5t52.5 -183t77 -93.5t91 -26q45 0 88 26t77 93.5t53.5 183 t19.5 295.5t-19.5 296t-53.5 183.5t-77 93t-88 25.5q-47 0 -91 -25.5t-77 -92t-52.5 -183.5t-19.5 -297z" />
<glyph unicode="1" d="M152 0v74l286 49q2 78 3 154.5t1 154.5v739l-266 -22v84l420 106l29 -18l-9 -293v-596q0 -78 1 -154.5t4 -154.5l288 -49v-74h-757z" />
<glyph unicode="2" d="M90 1034q8 80 44 139.5t92.5 98.5t127 58.5t148.5 19.5q100 0 171.5 -26t118 -72t68 -109.5t21.5 -138.5q0 -68 -18.5 -131.5t-62.5 -133t-116 -149.5t-178 -182l-248 -238h682v-170h-840v135l316 324q143 147 211.5 275t68.5 249q0 127 -66.5 200.5t-178.5 73.5 q-20 0 -46 -2t-57 -8l-37 -141q-20 -76 -46.5 -107.5t-69.5 -31.5q-70 0 -105 67z" />
<glyph unicode="3" d="M90 260q35 68 105 68q51 0 75.5 -34t42.5 -112l29 -106q33 -8 61.5 -11.5t51.5 -3.5q154 0 229.5 80t75.5 219q0 133 -77 209t-234 76h-101v105h82q139 0 216 70.5t77 201.5q0 113 -65.5 174t-186.5 61q-45 0 -92 -8l-29 -106q-18 -68 -42.5 -100.5t-78.5 -32.5 q-35 0 -61.5 17t-40.5 58q29 135 133.5 200t245.5 65q90 0 162.5 -23.5t124 -65.5t79 -101.5t27.5 -131.5q0 -113 -69.5 -199t-194.5 -131q156 -31 231.5 -117.5t75.5 -215.5q0 -84 -32.5 -156t-92 -125t-145.5 -84t-191 -31q-152 0 -258 68.5t-133 222.5z" />
<glyph unicode="4" d="M47 397v107l612 835h119v-813h213v-129h-213v-397h-170v397h-561zM174 526h434v600z" />
<glyph unicode="5" d="M78 258q27 70 104 70q47 0 72 -29t45 -111l31 -110q33 -10 61.5 -13.5t57.5 -3.5q150 0 227.5 91.5t77.5 240.5q0 154 -85 235t-235 81q-90 0 -190 -23l-58 16l43 617h670v-170h-577l-25 -340q92 25 190 25q100 0 183.5 -28t142.5 -81t92 -131t33 -180q0 -98 -34 -180 t-97.5 -140.5t-151.5 -91.5t-194 -33q-158 0 -255 73t-128 216z" />
<glyph unicode="6" d="M80 555q0 150 49 286t147.5 244.5t245 179t338.5 87.5l12 -66q-305 -74 -448 -230.5t-158 -385.5q131 143 301 143q84 0 154 -27.5t119 -80t76.5 -126t27.5 -165.5q0 -111 -31.5 -194t-88 -138t-134.5 -84t-168 -29q-207 0 -324.5 153.5t-117.5 432.5zM264 588 q2 -272 72.5 -399.5t191.5 -127.5q106 0 170 81t64 241q0 164 -65.5 235.5t-174.5 71.5q-66 0 -132 -23.5t-126 -78.5z" />
<glyph unicode="7" d="M104 1149v170h844v-105l-487 -1214h-168l-21 20l537 1129h-705z" />
<glyph unicode="8" d="M88 303q0 119 72.5 201t210.5 151q-125 72 -180.5 161t-55.5 194q0 80 30 143.5t82 106.5t121.5 66.5t147.5 23.5q80 0 144.5 -23.5t110.5 -65.5t71.5 -99.5t25.5 -127.5q0 -37 -11 -76.5t-36.5 -81.5t-70.5 -85t-113 -84q147 -76 221 -164t74 -224q0 -78 -33 -142 t-90 -110.5t-136 -72t-173 -25.5q-86 0 -162 21.5t-131 62.5t-87 103.5t-32 146.5zM258 315q0 -113 72.5 -184.5t187.5 -71.5q111 0 175.5 71t64.5 175q0 45 -15.5 83t-50.5 74t-95 72.5t-148 79.5q-98 -59 -144.5 -126.5t-46.5 -172.5zM297 1053q0 -41 11 -79t40 -76 t79 -76t128 -77q92 70 126 134.5t34 150.5q0 94 -52.5 160.5t-150.5 66.5q-43 0 -82 -14t-68.5 -40.5t-47 -64.5t-17.5 -85z" />
<glyph unicode="9" d="M59 926q0 94 32 173t89.5 134t138 86t177.5 31q100 0 180 -38t135 -106.5t84 -168t29 -222.5q0 -147 -42 -282.5t-133.5 -248t-231.5 -195.5t-337 -128l-20 76q139 45 239.5 102.5t168 130t106.5 160.5t53 193q-109 -98 -268 -99q-82 0 -155 28t-127 80t-86 125.5 t-32 168.5zM242 946q0 -80 20.5 -136t57 -92t86 -52.5t106.5 -16.5q131 0 223 80q2 14 2 26.5v26.5q0 248 -68.5 361.5t-181.5 113.5q-49 0 -94 -19t-78.5 -58t-53 -97.5t-19.5 -136.5z" />
<glyph unicode=":" horiz-adv-x="614" d="M162 115q0 61 42 104t103 43t103.5 -43t42.5 -104q0 -59 -42.5 -102.5t-103.5 -43.5t-103 43t-42 103zM162 856q0 61 42 104t103 43t103.5 -43t42.5 -104q0 -59 -42.5 -102.5t-103.5 -43.5t-103 43t-42 103z" />
<glyph unicode=";" horiz-adv-x="614" d="M12 -393q106 53 185 128t116 191l-75 58q-41 35 -59.5 72.5t-18.5 76.5q0 53 31.5 91t95.5 38q29 0 59.5 -12t69.5 -47q10 -39 16 -75t6 -75q0 -92 -34.5 -174t-90 -148.5t-127 -115.5t-145.5 -76zM162 856q0 61 42 104t103 43t103.5 -43t42.5 -104q0 -59 -42.5 -102.5 t-103.5 -43.5t-103 43t-42 103z" />
<glyph unicode="&#x3c;" horiz-adv-x="1085" d="M115 627v96l788 461l62 -111l-707 -397l707 -400l-62 -110z" />
<glyph unicode="=" horiz-adv-x="1085" d="M59 413v119h967v-119h-967zM59 821v119h967v-119h-967z" />
<glyph unicode="&#x3e;" horiz-adv-x="1085" d="M121 276l706 400l-706 397l61 111l789 -461v-96l-789 -461z" />
<glyph unicode="?" horiz-adv-x="858" d="M135 1288q0 47 29 72.5t84 40.5q70 -8 152.5 -43t153.5 -94.5t118 -140.5t47 -179q0 -190 -203 -258l-74 -24q-33 -10 -52 -20.5t-29.5 -23t-13.5 -29t-3 -40.5l-2 -111h-76l-26 86q-16 59 -22.5 90t-6.5 50q0 47 35 78.5t127 60.5l116 39q117 39 117 141q0 37 -14 75 t-37 75q-41 6 -88 13t-87 14t-66.5 11.5t-28.5 4.5q-90 16 -120 44.5t-30 67.5zM172 102q0 53 39 93.5t94 40.5t94 -40t39 -94q0 -53 -39 -93t-94 -40t-94 40t-39 93z" />
<glyph unicode="@" horiz-adv-x="1720" d="M72 418q0 193 69.5 358.5t191.5 288.5t286.5 192.5t357.5 69.5q158 0 282.5 -49t210.5 -136t132.5 -209t46.5 -269q0 -150 -44 -259.5t-114 -180t-153 -104.5t-160 -34q-88 0 -141.5 42t-63.5 116q-63 -70 -130 -114t-145 -44q-43 0 -83 15.5t-70.5 49t-49 87 t-18.5 129.5q0 123 50.5 232.5t121.5 193.5q68 82 146.5 127t162.5 45q76 0 140 -52l98 50l39 -33l-119 -586q-16 -76 13.5 -118t97.5 -42q53 0 106 28t95 87t69 153.5t27 227.5q0 135 -43 239.5t-118 176t-178.5 108.5t-221.5 37q-168 0 -308.5 -66.5t-242 -178 t-157.5 -258t-56 -306.5q0 -166 53 -292t143 -210t211 -126t254 -42q98 0 175 16.5t145 49.5l26 -61q-92 -47 -194.5 -68t-194.5 -21q-158 0 -293 47.5t-236.5 139.5t-158.5 230t-57 323zM621 406q0 -197 143 -197q43 0 89 22.5t118 81.5q2 8 3 16.5t3 18.5l90 457 q-29 35 -59.5 49t-65.5 14q-47 0 -103.5 -28.5t-105.5 -94.5q-47 -63 -79.5 -146t-32.5 -193z" />
<glyph unicode="A" horiz-adv-x="1359" d="M10 0v84l174 27l439 1259h122l441 -1268l153 -18v-84h-557v84l201 25l-115 337h-471l-114 -335l198 -27v-84h-471zM430 543h406l-201 592z" />
<glyph unicode="B" horiz-adv-x="1288" d="M90 0v84l189 22q4 129 4 261.5v267.5v100v264t-4 265l-189 22v84h594q106 0 189 -24.5t140.5 -69.5t87 -106.5t29.5 -135.5q0 -109 -72.5 -197.5t-240.5 -123.5q100 -14 173 -46t119 -76t67.5 -99.5t21.5 -116.5q0 -70 -29.5 -137.5t-95 -119.5t-170 -85t-254.5 -33h-559 zM475 369.5q0 -138.5 4 -273.5h125q203 0 297 72t94 207q0 143 -95 215t-310 72h-115v-292.5zM475 756h109q186 0 270 62.5t84 203.5q0 139 -79 195.5t-234 56.5h-146q-4 -129 -4 -258v-260z" />
<glyph unicode="C" horiz-adv-x="1292" d="M96 684q0 156 52.5 288t144.5 227t219 148.5t279 53.5q84 0 186 -19.5t207 -78.5l8 -299h-129l-41 243q-53 27 -104.5 38t-104.5 11q-102 0 -192.5 -39.5t-158 -116.5t-106.5 -191.5t-39 -264.5t36 -263.5t99.5 -191t152.5 -117.5t194 -40q59 0 120.5 13t122.5 42l41 238 h129l-8 -297q-98 -53 -201.5 -76t-211.5 -23q-156 0 -284 52.5t-219 147.5t-141.5 226t-50.5 289z" />
<glyph unicode="D" horiz-adv-x="1452" d="M90 0v84l189 22q4 131 4 267.5v285.5v76v264t-4 265l-189 22v84h606q141 0 262 -45t209 -131t138.5 -214t50.5 -294t-55.5 -294t-150.5 -215t-223 -132t-272 -45h-565zM475 369q0 -138 4 -273h183q106 0 193 38t148.5 113t95.5 184.5t34 252.5t-34 254t-96.5 185.5 t-149.5 112.5t-194 38h-180q-4 -133 -4 -267.5v-271.5v-76v-290z" />
<glyph unicode="E" horiz-adv-x="1236" d="M90 0v84l189 22q4 129 4 261.5v267.5v100v264t-4 265l-189 22v84h1020l14 -364h-116l-45 260h-484q-4 -129 -4 -258v-260h305l29 196h92v-485h-92l-27 192h-307v-281t4 -268h525l45 263h116l-14 -365h-1061z" />
<glyph unicode="F" horiz-adv-x="1185" d="M90 0v84l189 22q4 129 4 261.5v267.5v100v264t-4 265l-189 22v84h1020l14 -364h-116l-45 260h-484q-4 -129 -4 -258v-260h320l28 196h95v-506h-95l-28 213h-320v-279t4 -266l191 -22v-84h-580z" />
<glyph unicode="G" horiz-adv-x="1394" d="M96 684q0 154 50.5 286t142.5 227t220 149.5t286 54.5q125 0 223 -23.5t188 -74.5l8 -297h-129l-41 237q-55 29 -112.5 41t-120.5 12q-106 0 -196.5 -41t-157 -118.5t-103.5 -191.5t-37 -261q0 -293 135.5 -451.5t372.5 -158.5q115 0 217 41v65q0 92 -1 184.5t-3 184.5 l-211 18v82h537v-82l-125 -12q-2 -92 -3 -185.5t-1 -189.5v-90q-106 -55 -214 -88t-237 -33q-154 0 -280.5 54.5t-216.5 149.5t-140.5 226t-50.5 285z" />
<glyph unicode="H" horiz-adv-x="1617" d="M90 0v84l189 22q4 129 4 261.5v267.5v100v264t-4 265l-189 22v84h580v-84l-191 -22q-4 -127 -4 -255v-259h668v257t-4 257l-189 22v84h578v-84l-189 -22q-4 -129 -4 -261.5v-267.5v-100v-264t4 -265l189 -22v-84h-578v84l189 22q4 127 4 260.5v286.5h-668v-284.5 t4 -262.5l191 -22v-84h-580z" />
<glyph unicode="I" horiz-adv-x="757" d="M90 0v84l189 22q4 129 4 261.5v267.5v100v264t-4 265l-189 22v84h580v-84l-191 -22q-4 -129 -4 -261.5v-267.5v-100v-264t4 -265l191 -22v-84h-580z" />
<glyph unicode="J" horiz-adv-x="765" d="M-86 -233q10 55 44 77.5t81 22.5q39 0 73.5 -13.5t77.5 -48.5l56 -43q39 45 58.5 103.5t19.5 144.5q0 45 -2.5 118t-4.5 210t-6 359.5t-6 566.5l-209 22v84h600v-84l-188 -22q-4 -129 -4 -261.5v-267.5v-323q0 -86 -1 -150.5t-4 -116t-8.5 -93.5t-13.5 -81 q-16 -78 -53 -134t-89 -95t-114.5 -57.5t-126.5 -18.5q-57 0 -110.5 20.5t-69.5 80.5z" />
<glyph unicode="K" horiz-adv-x="1368" d="M90 0v84l189 22q4 129 4 261.5v267.5v100v264t-4 265l-189 22v84h580v-84l-195 -22q-4 -129 -4 -261.5v-267.5v-125l533 654l-150 22v84h471v-84l-201 -26l-348 -420l422 -736l160 -20v-84h-529v84l166 20l-331 601l-193 -230v-178t4 -191l195 -22v-84h-580z" />
<glyph unicode="L" horiz-adv-x="1220" d="M90 0v84l189 22q4 133 4 264.5v264.5v100v267.5t-4 261.5l-189 22v84h580v-84l-191 -22q-4 -133 -4 -264.5v-264.5v-100v-268.5t4 -264.5h467l60 283h127l-21 -385h-1022z" />
<glyph unicode="M" horiz-adv-x="1849" d="M78 0v84l186 27v1153l-184 22v84h364l476 -1100l491 1100h348v-84l-188 -22q-4 -129 -4 -261.5v-267.5v-100v-264t4 -265l188 -22v-84h-559v84l172 20q4 131 4 263.5v267.5v434l-471 -1069h-63l-473 1083v-972l170 -27v-84h-461z" />
<glyph unicode="N" horiz-adv-x="1509" d="M80 0v84l176 25v1132l-20 27l-146 18v84h316l745 -1016v906l-217 26v84h496v-84l-175 -26v-1280h-69l-828 1122v-989l217 -29v-84h-495z" />
<glyph unicode="O" horiz-adv-x="1447" d="M96 684q0 168 54.5 301t142.5 225.5t200.5 141.5t231.5 49t231.5 -46t200.5 -137.5t141.5 -225.5t53.5 -308q0 -168 -53.5 -301t-141.5 -225t-200.5 -140.5t-231.5 -48.5t-232.5 46t-201.5 136.5t-141.5 223.5t-53.5 309zM319 684q0 -115 24 -224.5t73 -195.5t125.5 -139 t183.5 -53q106 0 183 53t126 139t72.5 195.5t23.5 224.5t-23.5 225.5t-72.5 196.5t-126 138t-183 52t-183 -52t-126 -138t-73 -196.5t-24 -225.5z" />
<glyph unicode="P" horiz-adv-x="1206" d="M90 0v84l189 22q4 129 4 261.5v267.5v100v264t-4 265l-189 22v84h551q129 0 227.5 -29.5t163 -84t97 -129t32.5 -164.5q0 -86 -33.5 -162t-107.5 -134.5t-191.5 -92t-285.5 -33.5h-68v-216.5t4 -218.5l191 -22v-84h-580zM475 637h98q104 0 177 23.5t119 66.5t67.5 102.5 t21.5 133.5q0 147 -83.5 229t-270.5 82h-125q-4 -133 -4 -267.5v-271.5v-98z" />
<glyph unicode="Q" horiz-adv-x="1447" d="M96 684q0 168 54.5 301t142.5 225.5t200.5 141.5t231.5 49t231.5 -46t200.5 -137.5t141.5 -225.5t53.5 -308q0 -154 -45 -277.5t-120 -215t-173.5 -146.5t-204.5 -70q4 -150 80 -227.5t205 -77.5q31 0 70.5 5.5t86.5 19.5l25 -72q-53 -35 -121 -50t-133 -15 q-94 0 -169 33.5t-126 91t-78.5 134.5t-30.5 163q-104 18 -198 72t-166 143.5t-115 211t-43 277.5zM319 684q0 -115 24 -224.5t73 -195.5t125.5 -139t183.5 -53q106 0 183 53t126 139t72.5 195.5t23.5 224.5t-23.5 225.5t-72.5 196.5t-126 138t-183 52t-183 -52t-126 -138 t-73 -196.5t-24 -225.5z" />
<glyph unicode="R" horiz-adv-x="1333" d="M90 0v84l189 22q4 129 4 261.5v267.5v100v264t-4 265l-189 22v84h574q236 0 365.5 -93t129.5 -259q0 -63 -19.5 -121.5t-59.5 -106t-102.5 -81t-150.5 -50.5q78 -23 129.5 -82t83.5 -171l88 -302l175 -20v-84q-29 -10 -67 -15t-85 -5q-100 0 -155.5 28.5t-73.5 102.5 l-82 327q-14 61 -36 99t-54.5 59.5t-77.5 29t-107 7.5h-90v-268t4 -259l191 -22v-84h-580zM475 727h158q166 0 245.5 81t79.5 210q0 123 -71.5 189.5t-231.5 66.5h-176q-4 -133 -4 -265v-282z" />
<glyph unicode="S" horiz-adv-x="1048" d="M82 78l12 287h125l41 -238q49 -29 99.5 -42t115.5 -13q145 0 232.5 65.5t87.5 186.5q0 47 -15.5 82.5t-46.5 64.5t-79 53.5t-113 48.5l-80 31q-80 31 -144.5 70t-111.5 89t-73 111.5t-26 139.5q0 88 35 159.5t96.5 123t146.5 78t183 26.5q104 0 188.5 -30t149.5 -79 l-12 -268h-127l-43 233q-78 39 -166 39q-119 0 -198.5 -59t-79.5 -178q0 -98 60 -155.5t173 -100.5l82 -31q102 -39 174 -82t116 -92t64.5 -106.5t20.5 -126.5q0 -92 -36 -165t-100.5 -124t-154.5 -79t-197 -28q-117 0 -222 32t-177 77z" />
<glyph unicode="T" horiz-adv-x="1239" d="M41 1004l16 366h1127l14 -366h-117l-47 262h-313q-4 -131 -4 -263.5v-267.5v-100v-264t4 -265l209 -22v-84h-621v84l209 22q4 129 4 261.5v267.5v100v265.5t-4 265.5h-313l-45 -262h-119z" />
<glyph unicode="U" horiz-adv-x="1492" d="M80 1286v84h579v-84l-206 -24q-4 -129 -4 -260.5v-266.5v-160q0 -131 23.5 -219t67.5 -142t107.5 -76.5t140.5 -22.5q88 0 154 26.5t110 85t66.5 152.5t22.5 231v647l-209 29v84h491v-84l-178 -24v-701q0 -162 -37 -274.5t-103.5 -183t-155.5 -102.5t-193 -32 q-113 0 -205 32t-158.5 98.5t-102.5 170t-36 246.5v219v265.5t-4 265.5z" />
<glyph unicode="V" horiz-adv-x="1378" d="M29 1286v84h557v-94l-195 -16l346 -986l332 983l-182 19v94h471v-84l-176 -24l-434 -1282h-84l-480 1288z" />
<glyph unicode="W" horiz-adv-x="1972" d="M29 1286v84h557v-84l-189 -22l254 -940l312 938l-203 24v84h555v-84l-205 -24l305 -949l262 947l-190 26v84h465v-84l-170 -24l-348 -1282h-84l-361 1071l-338 -1071h-82l-370 1286z" />
<glyph unicode="X" horiz-adv-x="1327" d="M23 0v84l194 25l365 557l-359 600l-182 20v84h575v-84l-180 -20l260 -439l271 433l-172 26v84h471v-84l-185 -24l-333 -519l382 -639l175 -20v-84h-576v84l186 22l-284 476l-301 -476l159 -22v-84h-466z" />
<glyph unicode="Y" horiz-adv-x="1292" d="M29 1286v84h577v-84l-194 -22l284 -619l293 617l-184 24v84h467v-84l-178 -26l-349 -717v-64v-164t5 -209l208 -22v-84h-618v84l209 22q4 111 4 209.5v163.5v53l-363 736z" />
<glyph unicode="Z" horiz-adv-x="1130" d="M41 0v72l776 1194h-575l-56 -262h-125l17 366h966v-74l-776 -1194h639l56 263h127l-17 -365h-1032z" />
<glyph unicode="[" horiz-adv-x="655" d="M205 -326q4 160 5 322t1 328v491q0 162 -1 325t-5 324h389v-84l-227 -26q-4 -133 -4.5 -267.5t-0.5 -271.5v-491v-269.5t5 -269.5l227 -27v-84h-389z" />
<glyph unicode="\" horiz-adv-x="675" d="M4 1454h121l547 -1782h-121z" />
<glyph unicode="]" horiz-adv-x="655" d="M61 -242l228 27q4 133 4 267v272v491v269.5t-4 269.5l-228 26v84h390q-4 -160 -5.5 -321.5t-1.5 -327.5v-491q0 -162 1 -325t6 -325h-390v84z" />
<glyph unicode="^" horiz-adv-x="1085" d="M180 496l299 489h133l299 -489l-92 -70l-272 438l-275 -438z" />
<glyph unicode="_" horiz-adv-x="1048" d="M82 2h885v-136h-885v136z" />
<glyph unicode="`" horiz-adv-x="819" d="M177 1475q0 39 23.5 57t53.5 18q29 0 56.5 -19.5t60.5 -70.5l176 -280l-53 -41l-246 219q-45 41 -58 67.5t-13 49.5z" />
<glyph unicode="a" horiz-adv-x="1044" d="M94 227q0 43 14.5 84t51.5 79t103.5 76t170.5 75q47 16 107.5 33.5t122.5 33.5v56q0 74 -11.5 122t-34 75.5t-58.5 38.5t-87 11q-23 0 -48.5 -2t-55.5 -8l-41 -143q-29 -98 -111 -99q-43 0 -67.5 24t-28.5 65q29 117 135 187.5t264 70.5q162 0 240 -82t78 -279v-438 q0 -121 67 -121q25 0 43.5 11.5t32.5 23.5l10 12l41 -45q-35 -66 -76 -87t-90 -21q-86 0 -135 41.5t-63 111.5q-41 -41 -76 -71.5t-70 -51t-71.5 -31t-81.5 -10.5q-55 0 -105.5 16.5t-88.5 49.5t-59.5 81t-21.5 111zM276 260q0 -41 11.5 -65.5t27.5 -42.5q47 -47 125 -48 q25 0 47.5 5.5t47 18.5t55.5 34.5t74 52.5v315q-53 -14 -103.5 -30.5t-83.5 -28.5q-68 -27 -107.5 -54.5t-60 -54t-27 -53t-6.5 -49.5z" />
<glyph unicode="b" horiz-adv-x="1181" d="M51 1329v72l314 92l28 -16l-8 -291v-338q72 82 150.5 120t164.5 38q82 0 153 -35t123 -101.5t83 -161t31 -212.5q0 -119 -32 -216.5t-88.5 -166t-133 -106.5t-166.5 -38q-72 0 -139.5 29t-131.5 100h-16l-12 -118l-310 20v74l154 28q2 78 3 169t1 159v879zM391 201 q63 -59 125 -87t119 -28q55 0 104 24.5t86 73.5t58.5 123t21.5 172q0 199 -71.5 304.5t-188.5 105.5q-47 0 -108.5 -24.5t-145.5 -94.5v-569z" />
<glyph unicode="c" horiz-adv-x="999" d="M96 483q0 121 39 218.5t105.5 165t151.5 103.5t177 36q70 0 132.5 -20.5t110.5 -56.5t79 -84t41 -106q-14 -77 -92 -77h-2q-51 0 -76 27.5t-35 70.5l-37 135q-29 10 -57.5 13t-52.5 3q-133 0 -218.5 -104.5t-85.5 -302.5q0 -197 91.5 -300.5t236.5 -103.5q88 0 162 41 t121 119l51 -27q-41 -129 -138.5 -196.5t-244.5 -67.5q-104 0 -189 36t-145.5 103.5t-92.5 163t-32 211.5z" />
<glyph unicode="d" horiz-adv-x="1161" d="M92 477q0 117 33 214t91 167t138 109t174 39q74 0 139.5 -30t129.5 -104v437l-174 20v72l321 92l29 -16l-8 -291v-1086l165 -26v-74l-319 -20l-14 137q-53 -72 -121 -110t-166 -38q-94 0 -171 37t-132 104.5t-85 161t-30 205.5zM276 483q0 -102 21.5 -177t59.5 -124 t89.5 -72.5t112.5 -23.5q66 0 120 27.5t112 89.5v579q-70 59 -125.5 83t-106.5 24q-57 0 -108.5 -24.5t-90 -75t-61.5 -126t-23 -180.5z" />
<glyph unicode="e" horiz-adv-x="1044" d="M96 477q0 117 37 214t101.5 167t150.5 109t182 39q80 0 150.5 -27t122 -78t81 -125t29.5 -166q0 -35 -4 -63.5t-10 -50.5h-655q4 -190 94 -293t237 -103q98 0 164 41t121 107l49 -39q-53 -111 -152.5 -175.5t-240.5 -64.5q-104 0 -188 35t-143.5 101.5t-92.5 160.5 t-33 211zM285 584h372q74 0 98.5 30.5t24.5 75.5q0 43 -17.5 83t-47 70.5t-69.5 49t-87 18.5q-43 0 -89 -17t-84 -57t-65.5 -102.5t-35.5 -150.5z" />
<glyph unicode="f" horiz-adv-x="724" d="M72 860v90l170 23q8 82 19 147.5t27.5 117.5t41 94t57.5 77q66 72 141.5 98.5t145.5 26.5q74 0 128 -24.5t70 -84.5q-4 -41 -36.5 -67.5t-87.5 -26.5q-39 0 -74 16.5t-74 47.5l-51 41q-41 -31 -70 -82q-33 -53 -53 -146q-17 -77 -17 -192q0 -22 1 -47h280v-109h-276v-430 q0 -82 1 -163t3 -163l182 -30v-74h-526v74l162 28q2 82 3 164t1 164v430h-168z" />
<glyph unicode="g" horiz-adv-x="1060" d="M70 -195q0 127 190 224q-59 27 -84.5 68.5t-25.5 88.5q0 55 33.5 102.5t97.5 92.5q-72 41 -115 112.5t-43 176.5q0 80 28.5 142t78 105.5t117 66t147.5 22.5q162 0 262 -84l229 77l31 -20v-129h-199q45 -78 45 -180q0 -80 -28.5 -142.5t-77.5 -105.5t-117 -65.5 t-147 -22.5q-41 0 -78 5t-72 15q-16 -23 -27.5 -48t-11.5 -54q0 -47 35 -73.5t125 -26.5h213q168 0 249 -59.5t81 -168.5q0 -68 -32 -131t-96.5 -112.5t-159.5 -79t-224 -29.5q-109 0 -189 18.5t-132 50t-77.5 74.5t-25.5 90zM240 -160q0 -92 73.5 -134t192.5 -42 q170 0 257 59.5t87 143.5q0 25 -9.5 48.5t-33 41.5t-62 29.5t-98.5 11.5h-227q-53 0 -105 10q-35 -41 -55 -80t-20 -88zM289 668q0 -113 51 -182.5t145 -69.5q98 0 153.5 71.5t55.5 186.5q0 111 -51 179.5t-147 68.5q-98 0 -152.5 -71t-54.5 -183z" />
<glyph unicode="h" horiz-adv-x="1232" d="M51 1329v72l314 92l28 -16l-8 -291v-371q76 86 176.5 138.5t198.5 52.5q133 0 197.5 -88.5t64.5 -290.5v-197q0 -72 1 -161t3 -167l143 -28v-74h-475v74l152 28q2 76 3 166t1 162v180q0 139 -39 194.5t-129 55.5q-74 0 -141.5 -31.5t-149.5 -103.5v-295q0 -68 1 -159 t3 -169l142 -28v-74h-476v74l154 28q2 78 3 169t1 159v879z" />
<glyph unicode="i" horiz-adv-x="610" d="M61 809v72l316 125l31 -21l-7 -278v-277q0 -68 1 -159t4 -169l141 -28v-74h-475v74l153 28q2 78 3 169t1 159v102q0 84 -2 140.5t-4 118.5zM176 1358q0 59 39 95t98 36t98.5 -36t39.5 -95t-39.5 -96t-98.5 -37t-98 36.5t-39 96.5z" />
<glyph unicode="j" horiz-adv-x="569" d="M-168 -391q25 86 119 86q41 0 78 -16.5t77 -49.5l35 -26q6 8 12.5 15t10.5 17q23 43 36 80t19 91.5t8 136.5t2 217v372q0 84 -2 140.5t-4 118.5l-162 18v72l312 125l28 -21l-6 -278v-523q0 -125 -4 -216t-17.5 -159.5t-38 -119.5t-65.5 -95q-49 -53 -105 -77.5 t-132 -24.5q-53 0 -91 10.5t-62.5 27.5t-36 37.5t-11.5 41.5zM176 1358q0 59 39 95t98 36t98.5 -36t39.5 -95t-39 -96t-99 -37q-59 0 -98 36.5t-39 96.5z" />
<glyph unicode="k" horiz-adv-x="1122" d="M51 1329v72l320 92l28 -16l-8 -291v-699l361 375l-150 23v84h467v-84l-197 -27l-223 -227l338 -533l135 -24v-74h-278l-316 508l-137 -139q0 -66 1 -133.5t3 -133.5l162 -28v-74h-504v74l162 28q2 82 3 165t1 163v879z" />
<glyph unicode="l" horiz-adv-x="608" d="M51 1329v72l320 92l28 -16l-8 -291v-756q0 -82 1 -164t3 -164l162 -28v-74h-504v74l162 28q2 84 3 165t1 163v879z" />
<glyph unicode="m" horiz-adv-x="1847" d="M72 809v72l284 125l31 -21l16 -166q74 84 168.5 135.5t192.5 51.5t157.5 -45.5t84.5 -147.5q80 98 176 145.5t196 47.5q125 0 193.5 -84t68.5 -275v-217q0 -72 1 -161t4 -167l143 -28v-74h-475v74l151 28q2 76 3 166t1 162v184q0 141 -41 193.5t-129 52.5 q-66 0 -132 -30.5t-144 -102.5q2 -23 3 -47.5t1 -52.5v-197q0 -72 1 -161t3 -167l144 -28v-74h-476v74l152 28q2 76 3 166t1 162v180q0 139 -40 194.5t-128 55.5q-72 0 -134.5 -31.5t-139.5 -97.5v-301q0 -68 1 -159t3 -169l143 -28v-74h-475v74l152 28q2 78 3 168t1 160 v105q0 84 -2 139t-5 117z" />
<glyph unicode="n" horiz-adv-x="1243" d="M72 809v72l284 125l31 -21l16 -166q76 84 173.5 135.5t195.5 51.5q133 0 197.5 -88.5t64.5 -290.5v-197q0 -72 1 -161t3 -167l144 -28v-74h-475v74l151 28q2 76 3 166t1 162v180q0 139 -39 194.5t-129 55.5q-72 0 -138.5 -30.5t-143.5 -98.5v-301q0 -68 1 -159t3 -169 l143 -28v-74h-475v74l152 28q2 78 3 168t1 160v105q0 84 -2 139t-5 117z" />
<glyph unicode="o" horiz-adv-x="1124" d="M92 483q0 127 40 224.5t106.5 164t150.5 100.5t174 34q88 0 173 -34t150.5 -100.5t106.5 -164t41 -224.5t-40 -223t-106.5 -160.5t-151.5 -97.5t-173 -33q-90 0 -175 33t-150.5 97.5t-105.5 160.5t-40 223zM285 483q0 -207 71.5 -314.5t206.5 -107.5q133 0 205 107.5 t72 314.5q0 209 -72 318.5t-205 109.5q-135 0 -206.5 -109.5t-71.5 -318.5z" />
<glyph unicode="p" horiz-adv-x="1193" d="M72 -416l164 29q2 84 3 166t1 164v592q0 84 -2 139t-5 117l-159 18v72l284 125l31 -21l12 -133q141 154 310 154q82 0 153.5 -35t123.5 -101.5t83 -161t31 -212.5q0 -119 -32 -216.5t-88 -166t-134 -106.5t-168 -38q-72 0 -139.5 29t-132.5 104v-159q0 -80 1 -163t3 -165 l186 -31v-71h-526v71zM414 190q113 -104 227 -104q57 0 107.5 24.5t88 73.5t59.5 123t22 172q0 199 -72 304.5t-184 105.5q-47 0 -108.5 -23.5t-139.5 -89.5v-586z" />
<glyph unicode="q" horiz-adv-x="1140" d="M92 477q0 117 33 214t90 167t135 109t170 39q74 0 142.5 -30t134.5 -104l147 134l33 -21l-6 -276v-766q0 -84 1 -165t3 -165l164 -29v-71h-527v71l189 31q2 84 3 165t1 163v186q-117 -160 -295 -160q-94 0 -171 37t-132 104.5t-85 161t-30 205.5zM276 483 q0 -102 21.5 -177t59.5 -124t89.5 -72.5t112.5 -23.5q68 0 124 30.5t116 96.5v561q-72 66 -129.5 90.5t-110.5 24.5q-57 0 -108.5 -24.5t-90 -75t-61.5 -126t-23 -180.5z" />
<glyph unicode="r" horiz-adv-x="866" d="M72 809v72l284 125l31 -21l23 -240q53 123 132 192t163 69q45 0 87 -24t52 -77q0 -51 -35 -80.5t-88 -29.5q-63 0 -117 51l-14 14q-63 -47 -106.5 -111.5t-71.5 -156.5v-162q0 -68 1 -158t3 -168l168 -30v-74h-496v74l148 26q2 78 3 169t1 161v105q0 84 -2 139t-5 117z " />
<glyph unicode="s" horiz-adv-x="890" d="M98 272h113l39 -176q72 -33 166 -33q117 0 174 43.5t57 114.5q0 66 -48 105t-146 75l-95 35q-113 41 -180 107.5t-67 165.5q0 59 25.5 112t71.5 94t112.5 66t148.5 25q84 0 151.5 -21.5t135.5 -62.5l-8 -209h-107l-31 164q-72 34 -139 34h-4q-94 0 -142.5 -40t-48.5 -109 q0 -61 42 -97t149 -75l61 -23q156 -57 218.5 -132t62.5 -171q0 -57 -24.5 -110.5t-75 -94.5t-125 -65.5t-172.5 -24.5q-88 0 -159 19.5t-149 60.5z" />
<glyph unicode="t" horiz-adv-x="667" d="M18 860v90l183 23l51 278h125l-10 -282h274v-109h-279v-622q0 -80 30 -116t83 -36q61 0 137 57l50 -55q-39 -51 -101.5 -79.5t-140.5 -28.5q-109 0 -171.5 56t-62.5 177q0 39 1 77t1 97v473h-170z" />
<glyph unicode="u" horiz-adv-x="1196" d="M51 885v71l301 29l21 -20l-11 -287v-318q0 -137 40 -191t124 -54q143 0 287 133l6 606l-145 31v71l297 29l20 -20l-6 -287v-574l141 -30v-74l-284 -20l-23 182q-84 -102 -176 -147.5t-186 -45.5q-61 0 -111.5 19.5t-85.5 63.5t-52.5 114t-17.5 172l7 516z" />
<glyph unicode="v" horiz-adv-x="1036" d="M0 885v84h496v-84l-181 -23l250 -659l230 657l-166 25v84h387v-84l-111 -23l-336 -882h-86l-370 888z" />
<glyph unicode="w" horiz-adv-x="1568" d="M0 885v84h467v-84l-160 -23l213 -629l230 629l-152 23v84h453v-84l-154 -25l233 -622l195 622l-154 25v84h377v-84l-112 -25l-301 -880h-76l-275 712l-262 -712h-76l-329 886z" />
<glyph unicode="x" horiz-adv-x="1038" d="M20 0v74l132 24l282 371l-276 397l-127 19v84h438v-84l-113 -19l189 -282l205 278l-132 23v84h363v-84l-113 -21l-274 -352l287 -414l137 -24v-74h-481v74l141 26l-195 295l-215 -295l148 -26v-74h-396z" />
<glyph unicode="y" horiz-adv-x="1040" d="M-8 -371q10 43 49 64.5t86 21.5q41 0 75 -17t81 -63l6 -6q66 55 110.5 135t83.5 181l-368 921l-119 19v84h493v-86l-178 -21l254 -682l232 680l-176 25v84h399v-84l-115 -25l-307 -852q-49 -135 -97 -233.5t-98.5 -161t-104.5 -92t-118 -29.5q-78 0 -133 38t-55 99z" />
<glyph unicode="z" horiz-adv-x="935" d="M61 0v72l586 809h-414l-55 -228l-104 9l16 307h764v-74l-584 -809h447l61 248h107l-21 -334h-803z" />
<glyph unicode="{" horiz-adv-x="704" d="M82 528v82q129 16 186.5 63.5t57.5 125.5q0 41 -13.5 88t-30 98t-29.5 108.5t-13 120.5q0 123 81.5 186.5t229.5 63.5h92v-82l-55 -6q-53 -6 -88 -16t-54.5 -28.5t-27.5 -48.5t-8 -75q0 -119 12 -221t12 -166q0 -98 -44 -163.5t-142 -88.5q98 -23 142 -88t44 -164 q0 -63 -12 -165.5t-12 -221.5q0 -45 8 -74.5t27.5 -48t54.5 -28.5t88 -17l55 -6v-82h-92q-147 0 -229 63.5t-82 186.5q0 63 13 120.5t29.5 109t30 98.5t13.5 88q0 78 -57.5 125t-186.5 63z" />
<glyph unicode="|" horiz-adv-x="516" d="M199 -512v2048h118v-2048h-118z" />
<glyph unicode="}" horiz-adv-x="704" d="M61 -244l56 6q53 6 88 16.5t54.5 29t27.5 48t8 74.5q0 119 -12.5 221.5t-12.5 165.5q0 98 44 164t143 88q-98 23 -142.5 88.5t-44.5 163.5q0 63 12.5 166t12.5 221q0 45 -8 75t-27.5 48.5t-54.5 28.5t-88 16l-56 6v82h93q147 0 229 -63.5t82 -186.5q0 -63 -13.5 -120.5 t-29.5 -108.5t-29.5 -98t-13.5 -88q0 -78 57.5 -125t186.5 -64v-82q-129 -16 -186.5 -63t-57.5 -125q0 -41 13.5 -88t29.5 -98.5t29.5 -108.5t13.5 -121q0 -123 -82 -186.5t-229 -63.5h-93v82z" />
<glyph unicode="~" horiz-adv-x="1085" d="M100 575q18 289 244 289q66 0 122.5 -29.5t115.5 -82.5q51 -47 91 -65.5t81 -18.5t77.5 38.5t51.5 147.5l104 -16q-18 -289 -244 -289q-66 0 -122 29.5t-115 83.5q-51 47 -91 65t-81 18q-43 0 -79 -38.5t-50 -147.5z" />
<glyph unicode="&#xa1;" horiz-adv-x="591" d="M164 875q0 53 38 93t93 40t94 -40t39 -93t-39 -93t-94 -40t-93 39.5t-38 93.5zM178 -295q0 57 14.5 196.5t36.5 354.5l29 279h76l26 -279q23 -215 38.5 -354t15.5 -197q0 -68 -33 -98.5t-86 -30.5t-85 31t-32 98z" />
<glyph unicode="&#xa2;" d="M90 643q0 111 34 201t91 156.5t133 107.5t160 51v193h84v-189q66 -4 123 -25.5t102 -56t75 -82t38 -102.5q-18 -78 -99 -78q-49 0 -79.5 36t-49.5 120l-18 80q-51 14 -92 16v-811q90 4 167 44t124 114l51 -25q-39 -117 -124 -185.5t-218 -78.5v-221h-84v221 q-96 6 -173 45t-131 105.5t-84 158.5t-30 205zM270 662q0 -168 64.5 -268.5t173.5 -125.5v797q-104 -25 -171 -127t-67 -276z" />
<glyph unicode="&#xa3;" d="M72 0v104q55 31 98 76t71.5 98.5t44 113t15.5 118.5q0 39 -6 74h-211v102h180q-12 33 -26.5 64.5t-25.5 65.5t-19.5 73t-8.5 86q0 80 28 148.5t79 118.5t120.5 79t153.5 29q70 0 133.5 -21.5t112.5 -61.5t78 -94.5t33 -119.5q-10 -35 -35 -50.5t-60 -15.5q-41 0 -71.5 30 t-46.5 107l-27 123q-23 6 -44.5 8t-39.5 2q-96 0 -159.5 -64.5t-63.5 -209.5q0 -90 11 -157.5t22 -139.5h335v-102h-325q2 -14 2 -27.5v-30.5q0 -123 -38 -210t-110 -146h680v-170h-880z" />
<glyph unicode="&#xa4;" d="M57 293q0 29 26 54.5t93 66.5l74 43q-78 90 -78 217q0 66 20.5 120t57.5 97l-74 43q-70 41 -94.5 66.5t-24.5 54.5q0 31 21.5 52t52.5 21q29 0 54.5 -25.5t66.5 -92.5l45 -76q92 74 215 74t215 -74l45 76q41 70 66.5 94t54.5 24q31 0 53.5 -21.5t22.5 -51.5 q0 -29 -25.5 -54.5t-93.5 -66.5l-76 -45q35 -41 55.5 -95.5t20.5 -119.5q0 -66 -20.5 -120t-55.5 -95l76 -45q68 -41 92.5 -66.5t24.5 -54.5q0 -31 -21.5 -53.5t-52.5 -22.5q-29 0 -54.5 25.5t-66.5 93.5l-45 76q-45 -35 -100.5 -53.5t-114.5 -18.5t-114.5 18.5t-100.5 53.5 l-45 -76q-41 -68 -66.5 -92.5t-54.5 -24.5q-31 0 -52.5 21.5t-21.5 52.5zM291 674q0 -51 17.5 -93t48 -72t70.5 -46.5t85 -16.5q92 0 155.5 62.5t63.5 165.5q0 49 -17.5 91t-47 72.5t-69.5 47t-85 16.5t-85 -16.5t-70.5 -47t-48 -72.5t-17.5 -91z" />
<glyph unicode="&#xa5;" d="M-25 1241v78h500v-78l-156 -20l240 -543l246 541l-152 22v78h396v-78l-144 -24l-260 -562h291v-102h-336v-137h336v-105h-336q0 -53 1 -103t3 -104l209 -22v-82h-598v82l207 20q2 53 2 104.5t2 104.5h-324v105h324v137h-324v102h279l-270 570z" />
<glyph unicode="&#xa6;" horiz-adv-x="516" d="M199 410h118v-922h-118v922zM199 655v881h118v-881h-118z" />
<glyph unicode="&#xa7;" horiz-adv-x="1003" d="M92 653q0 160 168 260q-72 86 -72 195q0 55 21.5 107.5t64.5 93.5t109 66.5t156 25.5q70 0 129 -18.5t103 -49t69.5 -70.5t27.5 -83q-14 -43 -38.5 -60.5t-57.5 -17.5q-45 0 -75.5 26.5t-59.5 81.5l-47 95q-10 2 -19.5 2h-19.5q-109 0 -160 -46.5t-51 -107.5 q0 -47 20.5 -84t55.5 -66.5t81 -54t97 -47.5q76 -35 134 -68.5t99 -72.5t62.5 -88t21.5 -113q0 -90 -43 -156.5t-120 -115.5q33 -37 51 -82t18 -99q0 -61 -23.5 -117.5t-69.5 -99.5t-111.5 -68.5t-147.5 -25.5q-70 0 -129.5 18.5t-103.5 49.5t-69.5 70.5t-27.5 82.5 q14 43 38 60.5t58 17.5q45 0 76 -26.5t60 -81.5l47 -97q10 -2 18 -2h19q111 0 162 51.5t51 122.5q0 43 -17.5 76t-50.5 59.5t-80 51t-104 53.5q-66 31 -124.5 63.5t-101.5 73.5t-68.5 92.5t-25.5 122.5zM238 705q0 -47 21.5 -84t57 -66t79.5 -51.5t91 -42.5 q53 -25 107.5 -54.5t99.5 -66.5q35 35 54.5 80t19.5 90q0 43 -19.5 75.5t-53 59.5t-81 49.5t-102.5 46.5q-129 59 -201 121q-74 -68 -73 -157z" />
<glyph unicode="&#xa8;" horiz-adv-x="819" d="M86 1313q0 49 34 80.5t83 31.5q47 0 83 -31.5t36 -80.5q0 -47 -36 -79t-83 -32q-49 0 -83 32t-34 79zM498 1313q0 49 36 80.5t83 31.5q49 0 83 -31.5t34 -80.5q0 -47 -34 -79t-83 -32q-47 0 -83 32t-36 79z" />
<glyph unicode="&#xa9;" horiz-adv-x="1546" d="M61 688q0 168 55.5 300t153 224.5t227.5 140.5t277 48t277.5 -48t226.5 -140.5t151.5 -224.5t55.5 -300q0 -166 -55.5 -299t-151.5 -226t-226 -143.5t-278 -50.5q-147 0 -277 50.5t-227.5 143.5t-153 226t-55.5 299zM166 688q0 -147 47 -265t128 -201t192.5 -127 t240.5 -44t239.5 45t191.5 128t128 201t47 263q0 147 -47 263t-128 198t-191.5 125t-239.5 43t-240.5 -43t-192.5 -124t-128 -197.5t-47 -264.5zM408 690q0 88 29.5 165t82.5 132t126 87t159 32q66 0 120 -11.5t113 -45.5l4 -195h-90l-22 147q-55 20 -109 21 q-111 0 -188.5 -84t-77.5 -248q0 -162 72.5 -247t195.5 -85q20 0 51 5.5t66 17.5l23 143h92l-6 -194q-55 -29 -116 -42.5t-126 -13.5q-90 0 -163 31t-126 86t-81.5 131t-28.5 168z" />
<glyph unicode="&#xaa;" horiz-adv-x="720" d="M63 1012q0 31 9.5 59.5t35 56t70.5 53t119 50.5q33 10 72 21.5t80 21.5v37q0 90 -29 120.5t-94 30.5q-29 0 -72 -6l-18 -76q-25 -88 -86 -88q-31 0 -46.5 17.5t-19.5 46.5q16 78 90 128t182 50q111 0 169.5 -58.5t58.5 -199.5v-279q0 -29 13 -44t32 -15q29 0 57 35 l31 -27q-25 -51 -55.5 -70.5t-71.5 -19.5q-109 0 -135 96q-51 -49 -99.5 -75.5t-107.5 -26.5q-76 0 -130.5 41t-54.5 121zM201 1051q0 -29 7 -45.5t17 -26.5q16 -16 39 -22.5t45 -6.5q29 0 57.5 12.5t82.5 49.5v200q-35 -8 -68 -17t-57 -17q-80 -29 -101.5 -61t-21.5 -66z " />
<glyph unicode="&#xab;" horiz-adv-x="989" d="M61 461v112l414 357l51 -58l-305 -354l305 -356l-51 -58zM473 461v112l414 357l51 -58l-305 -354l305 -356l-51 -58z" />
<glyph unicode="&#xac;" horiz-adv-x="1085" d="M49 700v119h967v-493h-127v374h-840z" />
<glyph unicode="&#xad;" horiz-adv-x="638" d="M82 446v136h475v-136h-475z" />
<glyph unicode="&#xae;" horiz-adv-x="940" d="M61 1057q0 94 33 168.5t89.5 126t130 79t155.5 27.5t156.5 -27.5t131 -79t89.5 -126t33 -168.5t-33 -170t-89.5 -128t-131 -80t-156.5 -28t-155.5 28t-130 80t-89.5 128t-33 170zM141 1057q0 -82 24.5 -145.5t69 -107.5t104.5 -67.5t130 -23.5t130 23.5t105.5 67.5 t70 107.5t24.5 145.5t-24.5 145.5t-70 106.5t-105.5 65.5t-130 22.5t-130 -22.5t-104.5 -65.5t-69 -106.5t-24.5 -145.5zM281 858v31l59 6v336l-59 6v33h194q74 0 115 -29t41 -76q0 -33 -22.5 -62.5t-78.5 -45.5q35 -8 59.5 -26.5t31.5 -51.5l20 -84l47 -6v-31 q-20 -4 -32.5 -6t-28.5 -2q-39 0 -56.5 10t-25.5 43l-19 88q-4 27 -22.5 38t-46.5 11h-29v-145l57 -6v-31h-204zM428 1075h27q45 0 63.5 23.5t18.5 58.5q0 78 -82 78h-27v-160z" />
<glyph unicode="&#xaf;" horiz-adv-x="819" d="M142 1235v129h536v-129h-536z" />
<glyph unicode="&#xb0;" horiz-adv-x="675" d="M72 1135q0 59 21.5 108t58 84t85 54.5t101.5 19.5t101 -19.5t85 -54.5t58.5 -84t21.5 -108t-21.5 -108.5t-58.5 -83.5t-85 -52.5t-101 -18.5t-101.5 18.5t-85 52.5t-58 83t-21.5 109zM166 1135q0 -84 48 -136.5t124 -52.5t124 52.5t48 136.5t-48 138t-124 54t-124 -54 t-48 -138z" />
<glyph unicode="&#xb1;" horiz-adv-x="1085" d="M59 0v119h967v-119h-967zM59 623v118h420v404h127v-404h420v-118h-420v-416h-127v416h-420z" />
<glyph unicode="&#xb2;" horiz-adv-x="747" d="M94 1493q4 51 27.5 91t62.5 65.5t88.5 39t102.5 13.5q68 0 115 -18.5t77.5 -48t44 -68.5t13.5 -78q0 -43 -15.5 -84t-48.5 -85t-83 -95t-120 -115l-100 -94h397v-146h-549v103l189 182q92 88 136 164t44 154t-41 117.5t-112 39.5q-12 0 -24.5 -1t-29.5 -3l-18 -78 q-14 -59 -33.5 -80.5t-48.5 -21.5q-47 0 -74 47z" />
<glyph unicode="&#xb3;" horiz-adv-x="743" d="M76 1047q10 31 28.5 42t40.5 11q29 0 50.5 -19.5t31.5 -76.5l17 -76q31 -8 67 -8q90 0 138.5 46t48.5 128q0 76 -44 118.5t-143 42.5h-63v82h53q166 0 166 146q0 72 -40 109.5t-110 37.5q-10 0 -22 -1t-27 -3l-14 -74q-8 -47 -29.5 -65.5t-50.5 -18.5q-47 0 -72 43 q14 98 86 144.5t170 46.5q115 0 184.5 -54.5t69.5 -146.5q0 -72 -42 -126t-109 -77q92 -16 140 -70t48 -141q0 -63 -25.5 -107t-66.5 -72.5t-95 -42t-112 -13.5q-121 0 -190.5 51t-83.5 144z" />
<glyph unicode="&#xb4;" horiz-adv-x="819" d="M265 1180l178 280q31 51 58.5 70.5t55.5 19.5q31 0 54.5 -18.5t23.5 -56.5q0 -23 -13 -49.5t-58 -67.5l-246 -219z" />
<glyph unicode="&#xb5;" horiz-adv-x="1196" d="M94 -401q0 57 14.5 109t24.5 106l60 331v390l-13 434l113 37l37 -21l-15 -182v-379q0 -76 14.5 -126t41 -81t64.5 -44t85 -13q156 0 299 131v244l-12 430l111 41l38 -21l-14 -182v-549q0 -63 24.5 -92t61.5 -29q20 0 43 5t37 14l14 6l39 -107q-43 -41 -83 -56t-85 -15 q-94 0 -133 55t-41 147q-76 -111 -152.5 -162t-162.5 -51q-156 0 -207 140l-12 -586q-16 -12 -39 -21.5t-60 -9.5q-39 0 -65.5 24.5t-26.5 82.5z" />
<glyph unicode="&#xb6;" horiz-adv-x="1228" d="M51 844q0 119 48 216t136.5 165.5t213 106.5t280.5 38h410v-84l-189 -22q-4 -129 -4 -261.5v-267.5v-364q0 -160 1 -317.5t5 -317.5h-170q4 156 5 314.5t1 320.5v903h-118v-969q-147 0 -262 40t-194 111.5t-121 170t-42 217.5z" />
<glyph unicode="&#xb7;" horiz-adv-x="614" d="M162 674q0 61 42 104t103 43t103.5 -43t42.5 -104q0 -59 -42.5 -102.5t-103.5 -43.5t-103 43t-42 103z" />
<glyph unicode="&#xb8;" horiz-adv-x="819" d="M215 -434l14 63q25 -4 48.5 -5t51.5 -1q59 0 88 25.5t29 68.5q0 47 -35.5 71t-109.5 34l26 184h74l-14 -125q78 -12 132 -53t54 -115q0 -72 -58.5 -119t-170.5 -47q-43 0 -76 6.5t-53 12.5z" />
<glyph unicode="&#xb9;" horiz-adv-x="694" d="M133 870v62l152 31v610l-140 -12v69l269 66l18 -13v-720l150 -31v-62h-449z" />
<glyph unicode="&#xba;" horiz-adv-x="774" d="M57 1190q0 82 28 145.5t74 107.5t105.5 67.5t122.5 23.5q61 0 120.5 -23.5t105.5 -67.5t75 -107.5t29 -145.5q0 -80 -27.5 -143.5t-73 -107.5t-105.5 -66.5t-124 -22.5q-63 0 -122.5 22.5t-105.5 66.5t-74 107.5t-28 143.5zM207 1192q0 -141 46 -205.5t134 -64.5 t135 64.5t47 205.5q0 137 -47 203.5t-135 66.5q-180 0 -180 -270z" />
<glyph unicode="&#xbb;" horiz-adv-x="989" d="M51 162l305 356l-305 354l51 58l414 -357v-112l-414 -357zM463 162l305 356l-305 354l51 58l414 -357v-112l-414 -357z" />
<glyph unicode="&#xbc;" horiz-adv-x="1765" d="M170 522v62l152 31v610l-140 -12v69l269 66l18 -13v-720l150 -31v-62h-449zM423 2l953 1368l63 -51l-952 -1370zM983 205v98l387 525h98v-502h129v-121h-129v-203h-133v203h-352zM1085 326h250v356z" />
<glyph unicode="&#xbd;" horiz-adv-x="1765" d="M153 522v62l152 31v610l-140 -12v69l269 66l18 -13v-720l150 -31v-62h-449zM358 2l953 1368l63 -51l-952 -1370zM1052 625q4 51 27.5 91t62.5 65.5t88.5 39t102.5 13.5q68 0 115 -18.5t77.5 -48t44 -68.5t13.5 -78q0 -43 -15.5 -84t-48.5 -85t-83 -95t-120 -115l-100 -94 h397v-146h-549v103l189 182q92 88 136 164t44 154t-41 117.5t-112 39.5q-12 0 -24.5 -1t-29.5 -3l-18 -78q-14 -59 -33.5 -80.5t-48.5 -21.5q-47 0 -74 47z" />
<glyph unicode="&#xbe;" horiz-adv-x="1765" d="M160 699q10 31 28.5 42t40.5 11q29 0 50.5 -19.5t31.5 -76.5l17 -76q31 -8 67 -8q90 0 138.5 46t48.5 128q0 76 -44 118.5t-143 42.5h-63v82h53q166 0 166 146q0 72 -40 109.5t-110 37.5q-10 0 -22 -1t-27 -3l-14 -74q-8 -47 -29.5 -65.5t-50.5 -18.5q-47 0 -72 43 q14 98 86 144.5t170 46.5q115 0 184.5 -54.5t69.5 -146.5q0 -72 -42 -126t-109 -77q92 -16 140 -70t48 -141q0 -63 -25.5 -107t-66.5 -72.5t-95 -42t-112 -13.5q-121 0 -190.5 51t-83.5 144zM442 2l953 1368l63 -51l-952 -1370zM1002 205v98l387 525h98v-502h129v-121h-129 v-203h-133v203h-352zM1104 326h250v356z" />
<glyph unicode="&#xbf;" horiz-adv-x="858" d="M139 33q0 190 203 258l74 25q33 10 52 20t29.5 22.5t13.5 29t3 40.5l2 111h76l26 -86q16 -59 22.5 -90t6.5 -49q0 -47 -34.5 -79t-127.5 -61l-116 -39q-117 -41 -117 -141q0 -37 14.5 -75t36.5 -74q41 -6 88 -13.5t87 -14.5t66.5 -11t28.5 -4q90 -16 120 -45t30 -68 q0 -47 -28.5 -72.5t-84.5 -40.5q-72 8 -153.5 43t-152.5 94.5t-118 140.5t-47 179zM420 875q0 53 39 93t94 40t94 -40t39 -93t-39 -93t-94 -40t-94 39.5t-39 93.5z" />
<glyph unicode="&#xc0;" horiz-adv-x="1359" d="M10 0v84l174 27l439 1259h122l441 -1268l153 -18v-84h-557v84l201 25l-115 337h-471l-114 -335l198 -27v-84h-471zM430 543h406l-201 592zM444 1726q0 31 23 50.5t53 19.5q29 0 57.5 -17.5t71.5 -60.5l193 -192l-37 -51l-258 139q-59 31 -81 57.5t-22 54.5z" />
<glyph unicode="&#xc1;" horiz-adv-x="1359" d="M10 0v84l174 27l439 1259h122l441 -1268l153 -18v-84h-557v84l201 25l-115 337h-471l-114 -335l198 -27v-84h-471zM430 543h406l-201 592zM522 1526l193 192q43 43 71.5 60.5t57.5 17.5q31 0 54.5 -19.5t23.5 -50.5q0 -29 -22.5 -55t-82.5 -57l-258 -139z" />
<glyph unicode="&#xc2;" horiz-adv-x="1359" d="M10 0v84l174 27l439 1259h122l441 -1268l153 -18v-84h-557v84l201 25l-115 337h-471l-114 -335l198 -27v-84h-471zM399 1501l248 236h70l248 -236l-39 -51l-244 147l-244 -147zM430 543h406l-201 592z" />
<glyph unicode="&#xc3;" horiz-adv-x="1359" d="M10 0v84l174 27l439 1259h122l441 -1268l153 -18v-84h-557v84l201 25l-115 337h-471l-114 -335l198 -27v-84h-471zM340 1548q0 96 49 146.5t137 50.5q53 0 97.5 -19.5t89.5 -60.5q41 -35 69.5 -52.5t61.5 -17.5q41 0 69.5 30t28.5 99h70q2 -10 3 -19t1 -22 q0 -98 -50.5 -151t-140.5 -53q-53 0 -94 20.5t-88 61.5q-41 35 -69.5 52t-61.5 17q-41 0 -69.5 -29.5t-28.5 -101.5h-70q-2 10 -3 21.5t-1 27.5zM430 543h406l-201 592z" />
<glyph unicode="&#xc4;" horiz-adv-x="1359" d="M10 0v84l174 27l439 1259h122l441 -1268l153 -18v-84h-557v84l201 25l-115 337h-471l-114 -335l198 -27v-84h-471zM334 1622q0 49 36 81t83 32q49 0 82.5 -32t33.5 -81q0 -47 -33.5 -80t-82.5 -33q-47 0 -83 33t-36 80zM430 543h406l-201 592zM793 1622q0 49 33.5 81 t82.5 32q47 0 83 -32t36 -81q0 -47 -36 -80t-83 -33q-49 0 -82.5 33t-33.5 80z" />
<glyph unicode="&#xc5;" horiz-adv-x="1359" d="M10 0v84l174 27l439 1259h122l441 -1268l153 -18v-84h-557v84l201 25l-115 337h-471l-114 -335l198 -27v-84h-471zM430 543h406l-201 592zM481 1667q0 45 17.5 81t45 60.5t63.5 38t73 13.5t73 -12.5t63.5 -37t45 -60.5t17.5 -83q0 -43 -17.5 -79t-45 -60.5t-63.5 -37.5 t-73 -13t-73 12t-63.5 36.5t-45 60.5t-17.5 81zM574 1667q0 -43 26.5 -80t79.5 -37q51 0 78.5 37t27.5 80q0 45 -26.5 80t-79.5 35q-51 0 -78.5 -35t-27.5 -80z" />
<glyph unicode="&#xc6;" horiz-adv-x="1886" d="M10 0v84l170 22l631 1162l-158 18v84h1108l15 -364h-117l-45 260h-484q-4 -129 -4 -258v-260h306l28 196h94v-485h-94l-26 192h-308v-281t4 -268h525l45 263h117l-15 -365h-1048v84l176 20q2 96 3 195.5t1 208.5h-418l-215 -397l180 -27v-84h-471zM567 604h367v651h-14z " />
<glyph unicode="&#xc7;" horiz-adv-x="1292" d="M96 684q0 156 52.5 288t144.5 227t219 148.5t279 53.5q84 0 186 -19.5t207 -78.5l8 -299h-129l-41 243q-53 27 -104.5 38t-104.5 11q-102 0 -192.5 -39.5t-158 -116.5t-106.5 -191.5t-39 -264.5t36 -263.5t99.5 -191t152.5 -117.5t194 -40q59 0 120.5 13t122.5 42l41 238 h129l-8 -297q-98 -53 -201.5 -76t-211.5 -23q-156 0 -284 52.5t-219 147.5t-141.5 226t-50.5 289zM611 -434l14 63q25 -4 48.5 -5t51.5 -1q59 0 88 25.5t29 68.5q0 47 -35.5 71t-109.5 34l26 184h74l-14 -125q78 -12 132 -53t54 -115q0 -72 -58.5 -119t-170.5 -47 q-43 0 -76 6.5t-53 12.5z" />
<glyph unicode="&#xc8;" horiz-adv-x="1236" d="M90 0v84l189 22q4 129 4 261.5v267.5v100v264t-4 265l-189 22v84h1020l14 -364h-116l-45 260h-484q-4 -129 -4 -258v-260h305l29 196h92v-485h-92l-27 192h-307v-281t4 -268h525l45 263h116l-14 -365h-1061zM380 1726q0 31 23 50.5t53 19.5q29 0 57.5 -17.5t71.5 -60.5 l193 -192l-37 -51l-258 139q-59 31 -81 57.5t-22 54.5z" />
<glyph unicode="&#xc9;" horiz-adv-x="1236" d="M90 0v84l189 22q4 129 4 261.5v267.5v100v264t-4 265l-189 22v84h1020l14 -364h-116l-45 260h-484q-4 -129 -4 -258v-260h305l29 196h92v-485h-92l-27 192h-307v-281t4 -268h525l45 263h116l-14 -365h-1061zM540 1526l193 192q43 43 71.5 60.5t57.5 17.5q31 0 54.5 -19.5 t23.5 -50.5q0 -29 -22.5 -55t-82.5 -57l-258 -139z" />
<glyph unicode="&#xca;" horiz-adv-x="1236" d="M90 0v84l189 22q4 129 4 261.5v267.5v100v264t-4 265l-189 22v84h1020l14 -364h-116l-45 260h-484q-4 -129 -4 -258v-260h305l29 196h92v-485h-92l-27 192h-307v-281t4 -268h525l45 263h116l-14 -365h-1061zM415 1540l248 236h70l248 -236l-39 -51l-244 147l-244 -147z " />
<glyph unicode="&#xcb;" horiz-adv-x="1236" d="M90 0v84l189 22q4 129 4 261.5v267.5v100v264t-4 265l-189 22v84h1020l14 -364h-116l-45 260h-484q-4 -129 -4 -258v-260h305l29 196h92v-485h-92l-27 192h-307v-281t4 -268h525l45 263h116l-14 -365h-1061zM318 1622q0 49 36 81t83 32q49 0 82.5 -32t33.5 -81 q0 -47 -33.5 -80t-82.5 -33q-47 0 -83 33t-36 80zM777 1622q0 49 33.5 81t82.5 32q47 0 83 -32t36 -81q0 -47 -36 -80t-83 -33q-49 0 -82.5 33t-33.5 80z" />
<glyph unicode="&#xcc;" horiz-adv-x="757" d="M90 0v84l189 22q4 129 4 261.5v267.5v100v264t-4 265l-189 22v84h580v-84l-191 -22q-4 -129 -4 -261.5v-267.5v-100v-264t4 -265l191 -22v-84h-580zM141 1726q0 31 23 50.5t53 19.5q29 0 57.5 -17.5t71.5 -60.5l193 -192l-37 -51l-258 139q-59 31 -81 57.5t-22 54.5z" />
<glyph unicode="&#xcd;" horiz-adv-x="757" d="M90 0v84l189 22q4 129 4 261.5v267.5v100v264t-4 265l-189 22v84h580v-84l-191 -22q-4 -129 -4 -261.5v-267.5v-100v-264t4 -265l191 -22v-84h-580zM262 1526l193 192q43 43 71.5 60.5t57.5 17.5q31 0 54.5 -19.5t23.5 -50.5q0 -29 -22.5 -55t-82.5 -57l-258 -139z" />
<glyph unicode="&#xce;" horiz-adv-x="757" d="M90 0v84l189 22q4 129 4 261.5v267.5v100v264t-4 265l-189 22v84h580v-84l-191 -22q-4 -129 -4 -261.5v-267.5v-100v-264t4 -265l191 -22v-84h-580zM96 1540l248 236h70l248 -236l-39 -51l-244 147l-244 -147z" />
<glyph unicode="&#xcf;" horiz-adv-x="757" d="M31 1622q0 49 36 81t83 32q49 0 82.5 -32t33.5 -81q0 -47 -33.5 -80t-82.5 -33q-47 0 -83 33t-36 80zM90 0v84l189 22q4 129 4 261.5v267.5v100v264t-4 265l-189 22v84h580v-84l-191 -22q-4 -129 -4 -261.5v-267.5v-100v-264t4 -265l191 -22v-84h-580zM490 1622 q0 49 33.5 81t82.5 32q47 0 83 -32t36 -81q0 -47 -36 -80t-83 -33q-49 0 -82.5 33t-33.5 80z" />
<glyph unicode="&#xd0;" horiz-adv-x="1452" d="M90 0v84l189 22q4 129 4 264.5v282.5h-193v97h193v257t-4 257l-189 22v84h606q141 0 262 -45t209 -131t138.5 -214t50.5 -294t-55.5 -294t-150.5 -215t-223 -132t-272 -45h-565zM475 368.5q0 -137.5 4 -272.5h183q106 0 193 38t148.5 113t95.5 184.5t34 252.5t-34 254 t-96.5 185.5t-149.5 112.5t-194 38h-180q-4 -129 -4 -260v-264h316v-97h-316v-284.5z" />
<glyph unicode="&#xd1;" horiz-adv-x="1509" d="M80 0v84l176 25v1132l-20 27l-146 18v84h316l745 -1016v906l-217 26v84h496v-84l-175 -26v-1280h-69l-828 1122v-989l217 -29v-84h-495zM430 1532q0 96 49 146.5t137 50.5q53 0 97.5 -19.5t89.5 -60.5q41 -35 69.5 -52.5t61.5 -17.5q41 0 69.5 30t28.5 99h70q2 -10 3 -19 t1 -22q0 -98 -50.5 -151t-140.5 -53q-53 0 -94 20.5t-88 61.5q-41 35 -69.5 52t-61.5 17q-41 0 -69.5 -29.5t-28.5 -101.5h-70q-2 10 -3 21.5t-1 27.5z" />
<glyph unicode="&#xd2;" horiz-adv-x="1447" d="M96 684q0 168 54.5 301t142.5 225.5t200.5 141.5t231.5 49t231.5 -46t200.5 -137.5t141.5 -225.5t53.5 -308q0 -168 -53.5 -301t-141.5 -225t-200.5 -140.5t-231.5 -48.5t-232.5 46t-201.5 136.5t-141.5 223.5t-53.5 309zM319 684q0 -115 24 -224.5t73 -195.5t125.5 -139 t183.5 -53q106 0 183 53t126 139t72.5 195.5t23.5 224.5t-23.5 225.5t-72.5 196.5t-126 138t-183 52t-183 -52t-126 -138t-73 -196.5t-24 -225.5zM485 1726q0 31 23 50.5t53 19.5q29 0 57.5 -17.5t71.5 -60.5l193 -192l-37 -51l-258 139q-59 31 -81 57.5t-22 54.5z" />
<glyph unicode="&#xd3;" horiz-adv-x="1447" d="M96 684q0 168 54.5 301t142.5 225.5t200.5 141.5t231.5 49t231.5 -46t200.5 -137.5t141.5 -225.5t53.5 -308q0 -168 -53.5 -301t-141.5 -225t-200.5 -140.5t-231.5 -48.5t-232.5 46t-201.5 136.5t-141.5 223.5t-53.5 309zM319 684q0 -115 24 -224.5t73 -195.5t125.5 -139 t183.5 -53q106 0 183 53t126 139t72.5 195.5t23.5 224.5t-23.5 225.5t-72.5 196.5t-126 138t-183 52t-183 -52t-126 -138t-73 -196.5t-24 -225.5zM604 1526l193 192q43 43 71.5 60.5t57.5 17.5q31 0 54.5 -19.5t23.5 -50.5q0 -29 -22.5 -55t-82.5 -57l-258 -139z" />
<glyph unicode="&#xd4;" horiz-adv-x="1447" d="M96 684q0 168 54.5 301t142.5 225.5t200.5 141.5t231.5 49t231.5 -46t200.5 -137.5t141.5 -225.5t53.5 -308q0 -168 -53.5 -301t-141.5 -225t-200.5 -140.5t-231.5 -48.5t-232.5 46t-201.5 136.5t-141.5 223.5t-53.5 309zM319 684q0 -115 24 -224.5t73 -195.5t125.5 -139 t183.5 -53q106 0 183 53t126 139t72.5 195.5t23.5 224.5t-23.5 225.5t-72.5 196.5t-126 138t-183 52t-183 -52t-126 -138t-73 -196.5t-24 -225.5zM440 1540l248 236h70l248 -236l-39 -51l-244 147l-244 -147z" />
<glyph unicode="&#xd5;" horiz-adv-x="1447" d="M96 684q0 168 54.5 301t142.5 225.5t200.5 141.5t231.5 49t231.5 -46t200.5 -137.5t141.5 -225.5t53.5 -308q0 -168 -53.5 -301t-141.5 -225t-200.5 -140.5t-231.5 -48.5t-232.5 46t-201.5 136.5t-141.5 223.5t-53.5 309zM319 684q0 -115 24 -224.5t73 -195.5t125.5 -139 t183.5 -53q106 0 183 53t126 139t72.5 195.5t23.5 224.5t-23.5 225.5t-72.5 196.5t-126 138t-183 52t-183 -52t-126 -138t-73 -196.5t-24 -225.5zM381 1550q0 96 49 146.5t137 50.5q53 0 97.5 -19.5t89.5 -60.5q41 -35 69.5 -52.5t61.5 -17.5q41 0 69.5 30t28.5 99h70 q2 -10 3 -19t1 -22q0 -98 -50.5 -151t-140.5 -53q-53 0 -94 20.5t-88 61.5q-41 35 -69.5 52t-61.5 17q-41 0 -69.5 -29.5t-28.5 -101.5h-70q-2 10 -3 21.5t-1 27.5z" />
<glyph unicode="&#xd6;" horiz-adv-x="1447" d="M96 684q0 168 54.5 301t142.5 225.5t200.5 141.5t231.5 49t231.5 -46t200.5 -137.5t141.5 -225.5t53.5 -308q0 -168 -53.5 -301t-141.5 -225t-200.5 -140.5t-231.5 -48.5t-232.5 46t-201.5 136.5t-141.5 223.5t-53.5 309zM319 684q0 -115 24 -224.5t73 -195.5t125.5 -139 t183.5 -53q106 0 183 53t126 139t72.5 195.5t23.5 224.5t-23.5 225.5t-72.5 196.5t-126 138t-183 52t-183 -52t-126 -138t-73 -196.5t-24 -225.5zM375 1622q0 49 36 81t83 32q49 0 82.5 -32t33.5 -81q0 -47 -33.5 -80t-82.5 -33q-47 0 -83 33t-36 80zM834 1622q0 49 33.5 81 t82.5 32q47 0 83 -32t36 -81q0 -47 -36 -80t-83 -33q-49 0 -82.5 33t-33.5 80z" />
<glyph unicode="&#xd7;" horiz-adv-x="1085" d="M86 303l373 373l-373 371l86 83l371 -370l370 370l86 -83l-370 -371l370 -373l-86 -84l-370 371l-371 -371z" />
<glyph unicode="&#xd8;" horiz-adv-x="1447" d="M96 684q0 168 54.5 301t142.5 225.5t200.5 141.5t231.5 49q104 0 203.5 -36t183.5 -105l123 149l88 -70l-131 -161q72 -90 116 -213t44 -281q0 -168 -53.5 -301t-141.5 -225t-200.5 -140.5t-231.5 -48.5q-109 0 -212 38t-189 114l-131 -162l-89 70l144 174 q-70 88 -111 207.5t-41 273.5zM319 684q0 -86 12.5 -170t41.5 -158l641 783q-49 72 -120 114.5t-169 42.5q-106 0 -183 -52t-126 -138t-73 -196.5t-24 -225.5zM426 246q49 -78 123 -126t176 -48q106 0 183 53t126 139t72.5 195.5t23.5 224.5q0 92 -14 180t-45 166z" />
<glyph unicode="&#xd9;" horiz-adv-x="1492" d="M80 1286v84h579v-84l-206 -24q-4 -129 -4 -260.5v-266.5v-160q0 -131 23.5 -219t67.5 -142t107.5 -76.5t140.5 -22.5q88 0 154 26.5t110 85t66.5 152.5t22.5 231v647l-209 29v84h491v-84l-178 -24v-701q0 -162 -37 -274.5t-103.5 -183t-155.5 -102.5t-193 -32 q-113 0 -205 32t-158.5 98.5t-102.5 170t-36 246.5v219v265.5t-4 265.5zM509 1710q0 31 23 50.5t53 19.5q29 0 57.5 -17.5t71.5 -60.5l193 -192l-37 -51l-258 139q-59 31 -81 57.5t-22 54.5z" />
<glyph unicode="&#xda;" horiz-adv-x="1492" d="M80 1286v84h579v-84l-206 -24q-4 -129 -4 -260.5v-266.5v-160q0 -131 23.5 -219t67.5 -142t107.5 -76.5t140.5 -22.5q88 0 154 26.5t110 85t66.5 152.5t22.5 231v647l-209 29v84h491v-84l-178 -24v-701q0 -162 -37 -274.5t-103.5 -183t-155.5 -102.5t-193 -32 q-113 0 -205 32t-158.5 98.5t-102.5 170t-36 246.5v219v265.5t-4 265.5zM651 1510l193 192q43 43 71.5 60.5t57.5 17.5q31 0 54.5 -19.5t23.5 -50.5q0 -29 -22.5 -55t-82.5 -57l-258 -139z" />
<glyph unicode="&#xdb;" horiz-adv-x="1492" d="M80 1286v84h579v-84l-206 -24q-4 -129 -4 -260.5v-266.5v-160q0 -131 23.5 -219t67.5 -142t107.5 -76.5t140.5 -22.5q88 0 154 26.5t110 85t66.5 152.5t22.5 231v647l-209 29v84h491v-84l-178 -24v-701q0 -162 -37 -274.5t-103.5 -183t-155.5 -102.5t-193 -32 q-113 0 -205 32t-158.5 98.5t-102.5 170t-36 246.5v219v265.5t-4 265.5zM497 1524l248 236h70l248 -236l-39 -51l-244 147l-244 -147z" />
<glyph unicode="&#xdc;" horiz-adv-x="1492" d="M80 1286v84h579v-84l-206 -24q-4 -129 -4 -260.5v-266.5v-160q0 -131 23.5 -219t67.5 -142t107.5 -76.5t140.5 -22.5q88 0 154 26.5t110 85t66.5 152.5t22.5 231v647l-209 29v84h491v-84l-178 -24v-701q0 -162 -37 -274.5t-103.5 -183t-155.5 -102.5t-193 -32 q-113 0 -205 32t-158.5 98.5t-102.5 170t-36 246.5v219v265.5t-4 265.5zM443 1622q0 49 36 81t83 32q49 0 82.5 -32t33.5 -81q0 -47 -33.5 -80t-82.5 -33q-47 0 -83 33t-36 80zM902 1622q0 49 33.5 81t82.5 32q47 0 83 -32t36 -81q0 -47 -36 -80t-83 -33q-49 0 -82.5 33 t-33.5 80z" />
<glyph unicode="&#xdd;" horiz-adv-x="1292" d="M29 1286v84h577v-84l-194 -22l284 -619l293 617l-184 24v84h467v-84l-178 -26l-349 -717v-64v-164t5 -209l208 -22v-84h-618v84l209 22q4 111 4 209.5v163.5v53l-363 736zM569 1510l193 192q43 43 71.5 60.5t57.5 17.5q31 0 54.5 -19.5t23.5 -50.5q0 -29 -22.5 -55 t-82.5 -57l-258 -139z" />
<glyph unicode="&#xde;" horiz-adv-x="1249" d="M90 0v84l189 22q4 129 4 261.5v267.5v100v264t-4 265l-189 22v84h590v-84l-201 -22q-2 -41 -3 -84t-1 -84h193q268 0 400 -106.5t132 -280.5q0 -74 -25.5 -144.5t-91 -126t-179 -89.5t-290.5 -34h-139q0 -53 1 -104t1 -105l203 -22v-84h-590zM475 412h174q180 0 264 84 t84 217q0 139 -84 212.5t-270 73.5h-168v-587z" />
<glyph unicode="&#xdf;" horiz-adv-x="1210" d="M51 0v74l162 28q2 82 3 164t1 164v426q0 158 19.5 260.5t48.5 161.5q51 117 158.5 186.5t248.5 69.5q78 0 143.5 -20.5t112.5 -57.5t73 -88t26 -113q0 -84 -46.5 -153.5t-128.5 -130.5q-66 -47 -90 -94.5t-24 -96.5q0 -31 8 -54.5t27.5 -43.5t50 -42t74.5 -48 q74 -47 121.5 -85t75.5 -76t39 -77t11 -88q0 -137 -84 -217t-260 -80q-78 0 -147.5 15.5t-141.5 44.5l-6 243h101l47 -182q41 -16 74.5 -21.5t64.5 -5.5q100 0 144 44.5t44 121.5q0 27 -6 51.5t-25.5 50t-54 53.5t-90.5 62q-51 31 -91 60t-67.5 60.5t-43 71.5t-15.5 93 q0 78 34 141.5t106 122.5q70 59 99.5 110.5t29.5 123.5q0 98 -51.5 155.5t-163.5 57.5q-102 0 -161 -47t-87 -135q-8 -31 -13.5 -65t-7.5 -77t-2 -100v-135v-453q0 -215 6 -430h-346z" />
<glyph unicode="&#xe0;" horiz-adv-x="1044" d="M94 227q0 43 14.5 84t51.5 79t103.5 76t170.5 75q47 16 107.5 33.5t122.5 33.5v56q0 74 -11.5 122t-34 75.5t-58.5 38.5t-87 11q-23 0 -48.5 -2t-55.5 -8l-41 -143q-29 -98 -111 -99q-43 0 -67.5 24t-28.5 65q29 117 135 187.5t264 70.5q162 0 240 -82t78 -279v-438 q0 -121 67 -121q25 0 43.5 11.5t32.5 23.5l10 12l41 -45q-35 -66 -76 -87t-90 -21q-86 0 -135 41.5t-63 111.5q-41 -41 -76 -71.5t-70 -51t-71.5 -31t-81.5 -10.5q-55 0 -105.5 16.5t-88.5 49.5t-59.5 81t-21.5 111zM276 260q0 -41 11.5 -65.5t27.5 -42.5q47 -47 125 -48 q25 0 47.5 5.5t47 18.5t55.5 34.5t74 52.5v315q-53 -14 -103.5 -30.5t-83.5 -28.5q-68 -27 -107.5 -54.5t-60 -54t-27 -53t-6.5 -49.5zM291 1475q0 39 23.5 57t53.5 18q29 0 56.5 -19.5t60.5 -70.5l176 -280l-53 -41l-246 219q-45 41 -58 67.5t-13 49.5z" />
<glyph unicode="&#xe1;" horiz-adv-x="1044" d="M94 227q0 43 14.5 84t51.5 79t103.5 76t170.5 75q47 16 107.5 33.5t122.5 33.5v56q0 74 -11.5 122t-34 75.5t-58.5 38.5t-87 11q-23 0 -48.5 -2t-55.5 -8l-41 -143q-29 -98 -111 -99q-43 0 -67.5 24t-28.5 65q29 117 135 187.5t264 70.5q162 0 240 -82t78 -279v-438 q0 -121 67 -121q25 0 43.5 11.5t32.5 23.5l10 12l41 -45q-35 -66 -76 -87t-90 -21q-86 0 -135 41.5t-63 111.5q-41 -41 -76 -71.5t-70 -51t-71.5 -31t-81.5 -10.5q-55 0 -105.5 16.5t-88.5 49.5t-59.5 81t-21.5 111zM276 260q0 -41 11.5 -65.5t27.5 -42.5q47 -47 125 -48 q25 0 47.5 5.5t47 18.5t55.5 34.5t74 52.5v315q-53 -14 -103.5 -30.5t-83.5 -28.5q-68 -27 -107.5 -54.5t-60 -54t-27 -53t-6.5 -49.5zM428 1180l178 280q31 51 58.5 70.5t55.5 19.5q31 0 54.5 -18.5t23.5 -56.5q0 -23 -13 -49.5t-58 -67.5l-246 -219z" />
<glyph unicode="&#xe2;" horiz-adv-x="1044" d="M94 227q0 43 14.5 84t51.5 79t103.5 76t170.5 75q47 16 107.5 33.5t122.5 33.5v56q0 74 -11.5 122t-34 75.5t-58.5 38.5t-87 11q-23 0 -48.5 -2t-55.5 -8l-41 -143q-29 -98 -111 -99q-43 0 -67.5 24t-28.5 65q29 117 135 187.5t264 70.5q162 0 240 -82t78 -279v-438 q0 -121 67 -121q25 0 43.5 11.5t32.5 23.5l10 12l41 -45q-35 -66 -76 -87t-90 -21q-86 0 -135 41.5t-63 111.5q-41 -41 -76 -71.5t-70 -51t-71.5 -31t-81.5 -10.5q-55 0 -105.5 16.5t-88.5 49.5t-59.5 81t-21.5 111zM221 1182l270 360h70l270 -360l-49 -43l-256 217 l-256 -217zM276 260q0 -41 11.5 -65.5t27.5 -42.5q47 -47 125 -48q25 0 47.5 5.5t47 18.5t55.5 34.5t74 52.5v315q-53 -14 -103.5 -30.5t-83.5 -28.5q-68 -27 -107.5 -54.5t-60 -54t-27 -53t-6.5 -49.5z" />
<glyph unicode="&#xe3;" horiz-adv-x="1044" d="M94 227q0 43 14.5 84t51.5 79t103.5 76t170.5 75q47 16 107.5 33.5t122.5 33.5v56q0 74 -11.5 122t-34 75.5t-58.5 38.5t-87 11q-23 0 -48.5 -2t-55.5 -8l-41 -143q-29 -98 -111 -99q-43 0 -67.5 24t-28.5 65q29 117 135 187.5t264 70.5q162 0 240 -82t78 -279v-438 q0 -121 67 -121q25 0 43.5 11.5t32.5 23.5l10 12l41 -45q-35 -66 -76 -87t-90 -21q-86 0 -135 41.5t-63 111.5q-41 -41 -76 -71.5t-70 -51t-71.5 -31t-81.5 -10.5q-55 0 -105.5 16.5t-88.5 49.5t-59.5 81t-21.5 111zM160 1245q0 104 57.5 164.5t139.5 60.5q47 0 89 -23.5 t87 -64.5q41 -41 70.5 -61.5t62.5 -20.5q41 0 68.5 34t27.5 112h70q2 -10 3 -20.5t1 -26.5q0 -106 -57.5 -165.5t-139.5 -59.5q-47 0 -89 22.5t-87 65.5q-41 41 -69.5 60t-61.5 19q-41 0 -69.5 -33.5t-28.5 -111.5h-70q-2 10 -3 23.5t-1 25.5zM276 260q0 -41 11.5 -65.5 t27.5 -42.5q47 -47 125 -48q25 0 47.5 5.5t47 18.5t55.5 34.5t74 52.5v315q-53 -14 -103.5 -30.5t-83.5 -28.5q-68 -27 -107.5 -54.5t-60 -54t-27 -53t-6.5 -49.5z" />
<glyph unicode="&#xe4;" horiz-adv-x="1044" d="M94 227q0 43 14.5 84t51.5 79t103.5 76t170.5 75q47 16 107.5 33.5t122.5 33.5v56q0 74 -11.5 122t-34 75.5t-58.5 38.5t-87 11q-23 0 -48.5 -2t-55.5 -8l-41 -143q-29 -98 -111 -99q-43 0 -67.5 24t-28.5 65q29 117 135 187.5t264 70.5q162 0 240 -82t78 -279v-438 q0 -121 67 -121q25 0 43.5 11.5t32.5 23.5l10 12l41 -45q-35 -66 -76 -87t-90 -21q-86 0 -135 41.5t-63 111.5q-41 -41 -76 -71.5t-70 -51t-71.5 -31t-81.5 -10.5q-55 0 -105.5 16.5t-88.5 49.5t-59.5 81t-21.5 111zM188 1313q0 49 34 80.5t83 31.5q47 0 83 -31.5t36 -80.5 q0 -47 -36 -79t-83 -32q-49 0 -83 32t-34 79zM276 260q0 -41 11.5 -65.5t27.5 -42.5q47 -47 125 -48q25 0 47.5 5.5t47 18.5t55.5 34.5t74 52.5v315q-53 -14 -103.5 -30.5t-83.5 -28.5q-68 -27 -107.5 -54.5t-60 -54t-27 -53t-6.5 -49.5zM600 1313q0 49 36 80.5t83 31.5 q49 0 83 -31.5t34 -80.5q0 -47 -34 -79t-83 -32q-47 0 -83 32t-36 79z" />
<glyph unicode="&#xe5;" horiz-adv-x="1044" d="M94 227q0 43 14.5 84t51.5 79t103.5 76t170.5 75q47 16 107.5 33.5t122.5 33.5v56q0 74 -11.5 122t-34 75.5t-58.5 38.5t-87 11q-23 0 -48.5 -2t-55.5 -8l-41 -143q-29 -98 -111 -99q-43 0 -67.5 24t-28.5 65q29 117 135 187.5t264 70.5q162 0 240 -82t78 -279v-438 q0 -121 67 -121q25 0 43.5 11.5t32.5 23.5l10 12l41 -45q-35 -66 -76 -87t-90 -21q-86 0 -135 41.5t-63 111.5q-41 -41 -76 -71.5t-70 -51t-71.5 -31t-81.5 -10.5q-55 0 -105.5 16.5t-88.5 49.5t-59.5 81t-21.5 111zM276 260q0 -41 11.5 -65.5t27.5 -42.5q47 -47 125 -48 q25 0 47.5 5.5t47 18.5t55.5 34.5t74 52.5v315q-53 -14 -103.5 -30.5t-83.5 -28.5q-68 -27 -107.5 -54.5t-60 -54t-27 -53t-6.5 -49.5zM309 1313q0 47 18.5 86t48 65.5t68.5 41t80 14.5t80 -13.5t68.5 -40t48 -65.5t18.5 -88t-18.5 -88t-48 -65.5t-68.5 -41t-80 -14.5 t-80 13t-68.5 40t-48 66t-18.5 90zM407 1313q0 -47 30 -87t87 -40q55 0 86 40t31 87t-30 86t-87 39q-55 0 -86 -39t-31 -86z" />
<glyph unicode="&#xe6;" horiz-adv-x="1605" d="M94 227q0 43 14.5 84t51.5 79t103.5 76t170.5 75q47 16 107.5 34.5t122.5 32.5v56q0 74 -11.5 122t-34 75.5t-57.5 38.5t-82 11q-25 0 -52.5 -2t-57.5 -8l-41 -143q-29 -98 -113 -99q-41 0 -65.5 24t-28.5 65q29 117 135 187.5t262 70.5q98 0 171 -38t108 -124 q66 78 148.5 120t178.5 42q82 0 152 -27t122 -78t81.5 -125t29.5 -168q0 -35 -4 -62.5t-10 -49.5h-655q2 -188 92 -292t242 -104q98 0 163.5 41t118.5 107l49 -39q-53 -111 -152.5 -175.5t-240.5 -64.5q-127 0 -223 51.5t-156 147.5l-45 -41q-47 -43 -85 -72.5t-73.5 -49 t-73.5 -28t-85 -8.5q-57 0 -107.5 16.5t-88.5 49.5t-59.5 81t-21.5 111zM276 260q0 -41 11.5 -65.5t27.5 -42.5q47 -47 125 -48q31 0 56.5 5.5t52 17.5t57.5 32.5t72 51.5l24 18q-47 111 -47 254v23.5t2 23.5q-53 -16 -100 -31.5t-80 -27.5q-68 -27 -107.5 -54.5t-60 -54 t-27 -53t-6.5 -49.5zM844 584h375q72 0 96 29.5t24 76.5q0 45 -17 85t-47 71t-71 48t-88 17q-43 0 -87 -17t-83 -56t-66.5 -101.5t-35.5 -152.5z" />
<glyph unicode="&#xe7;" horiz-adv-x="999" d="M96 483q0 121 39 218.5t105.5 165t151.5 103.5t177 36q70 0 132.5 -20.5t110.5 -56.5t79 -84t41 -106q-14 -78 -94 -77q-51 0 -76 27.5t-35 70.5l-37 135q-29 10 -57.5 13t-52.5 3q-133 0 -218.5 -104.5t-85.5 -302.5q0 -197 91.5 -300.5t236.5 -103.5q88 0 162 41 t121 119l51 -27q-41 -129 -138.5 -196.5t-244.5 -67.5q-104 0 -189 36t-145.5 103.5t-92.5 163t-32 211.5zM402 -434l14 63q25 -4 48.5 -5t51.5 -1q59 0 88 25.5t29 68.5q0 47 -35.5 71t-109.5 34l26 184h74l-14 -125q78 -12 132 -53t54 -115q0 -72 -58.5 -119t-170.5 -47 q-43 0 -76 6.5t-53 12.5z" />
<glyph unicode="&#xe8;" horiz-adv-x="1044" d="M96 477q0 117 37 214t101.5 167t150.5 109t182 39q80 0 150.5 -27t122 -78t81 -125t29.5 -166q0 -35 -4 -63.5t-10 -50.5h-655q4 -190 94 -293t237 -103q98 0 164 41t121 107l49 -39q-53 -111 -152.5 -175.5t-240.5 -64.5q-104 0 -188 35t-143.5 101.5t-92.5 160.5 t-33 211zM285 584h372q74 0 98.5 30.5t24.5 75.5q0 43 -17.5 83t-47 70.5t-69.5 49t-87 18.5q-43 0 -89 -17t-84 -57t-65.5 -102.5t-35.5 -150.5zM289 1475q0 39 23.5 57t53.5 18q29 0 56.5 -19.5t60.5 -70.5l176 -280l-53 -41l-246 219q-45 41 -58 67.5t-13 49.5z" />
<glyph unicode="&#xe9;" horiz-adv-x="1044" d="M96 477q0 117 37 214t101.5 167t150.5 109t182 39q80 0 150.5 -27t122 -78t81 -125t29.5 -166q0 -35 -4 -63.5t-10 -50.5h-655q4 -190 94 -293t237 -103q98 0 164 41t121 107l49 -39q-53 -111 -152.5 -175.5t-240.5 -64.5q-104 0 -188 35t-143.5 101.5t-92.5 160.5 t-33 211zM285 584h372q74 0 98.5 30.5t24.5 75.5q0 43 -17.5 83t-47 70.5t-69.5 49t-87 18.5q-43 0 -89 -17t-84 -57t-65.5 -102.5t-35.5 -150.5zM441 1180l178 280q31 51 58.5 70.5t55.5 19.5q31 0 54.5 -18.5t23.5 -56.5q0 -23 -13 -49.5t-58 -67.5l-246 -219z" />
<glyph unicode="&#xea;" horiz-adv-x="1044" d="M96 477q0 117 37 214t101.5 167t150.5 109t182 39q80 0 150.5 -27t122 -78t81 -125t29.5 -166q0 -35 -4 -63.5t-10 -50.5h-655q4 -190 94 -293t237 -103q98 0 164 41t121 107l49 -39q-53 -111 -152.5 -175.5t-240.5 -64.5q-104 0 -188 35t-143.5 101.5t-92.5 160.5 t-33 211zM240 1182l270 360h70l270 -360l-49 -43l-256 217l-256 -217zM285 584h372q74 0 98.5 30.5t24.5 75.5q0 43 -17.5 83t-47 70.5t-69.5 49t-87 18.5q-43 0 -89 -17t-84 -57t-65.5 -102.5t-35.5 -150.5z" />
<glyph unicode="&#xeb;" horiz-adv-x="1044" d="M96 477q0 117 37 214t101.5 167t150.5 109t182 39q80 0 150.5 -27t122 -78t81 -125t29.5 -166q0 -35 -4 -63.5t-10 -50.5h-655q4 -190 94 -293t237 -103q98 0 164 41t121 107l49 -39q-53 -111 -152.5 -175.5t-240.5 -64.5q-104 0 -188 35t-143.5 101.5t-92.5 160.5 t-33 211zM227 1313q0 49 34 80.5t83 31.5q47 0 83 -31.5t36 -80.5q0 -47 -36 -79t-83 -32q-49 0 -83 32t-34 79zM285 584h372q74 0 98.5 30.5t24.5 75.5q0 43 -17.5 83t-47 70.5t-69.5 49t-87 18.5q-43 0 -89 -17t-84 -57t-65.5 -102.5t-35.5 -150.5zM639 1313q0 49 36 80.5 t83 31.5q49 0 83 -31.5t34 -80.5q0 -47 -34 -79t-83 -32q-47 0 -83 32t-36 79z" />
<glyph unicode="&#xec;" horiz-adv-x="610" d="M52 1475q0 39 23.5 57t53.5 18q29 0 56.5 -19.5t60.5 -70.5l176 -280l-53 -41l-246 219q-45 41 -58 67.5t-13 49.5zM61 809v72l316 125l31 -21l-7 -278v-277q0 -68 1 -159t4 -169l141 -28v-74h-475v74l153 28q2 78 3 169t1 159v102q0 84 -2 140.5t-4 118.5z" />
<glyph unicode="&#xed;" horiz-adv-x="610" d="M61 809v72l316 125l31 -21l-7 -278v-277q0 -68 1 -159t4 -169l141 -28v-74h-475v74l153 28q2 78 3 169t1 159v102q0 84 -2 140.5t-4 118.5zM199 1180l178 280q31 51 58.5 70.5t55.5 19.5q31 0 54.5 -18.5t23.5 -56.5q0 -23 -13 -49.5t-58 -67.5l-246 -219z" />
<glyph unicode="&#xee;" horiz-adv-x="610" d="M10 1182l270 360h70l270 -360l-49 -43l-256 217l-256 -217zM61 809v72l316 125l31 -21l-7 -278v-277q0 -68 1 -159t4 -169l141 -28v-74h-475v74l153 28q2 78 3 169t1 159v102q0 84 -2 140.5t-4 118.5z" />
<glyph unicode="&#xef;" horiz-adv-x="610" d="M-29 1313q0 49 34 80.5t83 31.5q47 0 83 -31.5t36 -80.5q0 -47 -36 -79t-83 -32q-49 0 -83 32t-34 79zM61 809v72l316 125l31 -21l-7 -278v-277q0 -68 1 -159t4 -169l141 -28v-74h-475v74l153 28q2 78 3 169t1 159v102q0 84 -2 140.5t-4 118.5zM383 1313q0 49 36 80.5 t83 31.5q49 0 83 -31.5t34 -80.5q0 -47 -34 -79t-83 -32q-47 0 -83 32t-36 79z" />
<glyph unicode="&#xf0;" horiz-adv-x="1116" d="M92 475q0 119 39 211t102.5 154.5t144.5 95.5t167 33q80 0 146.5 -25.5t113.5 -79.5q-35 111 -81 197t-112 160l-288 -148l-39 78l264 135q-49 47 -108.5 90t-131.5 90l41 68q86 -41 163 -88t144 -105l310 160l39 -78l-281 -143q133 -135 210 -310t77 -401 q0 -281 -124 -440.5t-351 -159.5q-86 0 -166 33t-141.5 96.5t-99.5 158.5t-38 218zM285 465q0 -199 70.5 -301.5t199.5 -102.5q139 0 205.5 107.5t66.5 304.5q0 205 -72.5 303t-199.5 98q-135 0 -202.5 -105t-67.5 -304z" />
<glyph unicode="&#xf1;" horiz-adv-x="1243" d="M72 809v72l284 125l31 -21l16 -166q76 84 173.5 135.5t195.5 51.5q133 0 197.5 -88.5t64.5 -290.5v-197q0 -72 1 -161t3 -167l144 -28v-74h-475v74l151 28q2 76 3 166t1 162v180q0 139 -39 194.5t-129 55.5q-72 0 -138.5 -30.5t-143.5 -98.5v-301q0 -68 1 -159t3 -169 l143 -28v-74h-475v74l152 28q2 78 3 168t1 160v105q0 84 -2 139t-5 117zM283 1245q0 104 57.5 164.5t139.5 60.5q47 0 89 -23.5t87 -64.5q41 -41 70.5 -61.5t62.5 -20.5q41 0 68.5 34t27.5 112h70q2 -10 3 -20.5t1 -26.5q0 -106 -57.5 -165.5t-139.5 -59.5q-47 0 -89 22.5 t-87 65.5q-41 41 -69.5 60t-61.5 19q-41 0 -69.5 -33.5t-28.5 -111.5h-70q-2 10 -3 23.5t-1 25.5z" />
<glyph unicode="&#xf2;" horiz-adv-x="1124" d="M92 483q0 127 40 224.5t106.5 164t150.5 100.5t174 34q88 0 173 -34t150.5 -100.5t106.5 -164t41 -224.5t-40 -223t-106.5 -160.5t-151.5 -97.5t-173 -33q-90 0 -175 33t-150.5 97.5t-105.5 160.5t-40 223zM285 483q0 -207 71.5 -314.5t206.5 -107.5q133 0 205 107.5 t72 314.5q0 209 -72 318.5t-205 109.5q-135 0 -206.5 -109.5t-71.5 -318.5zM304 1475q0 39 23.5 57t53.5 18q29 0 56.5 -19.5t60.5 -70.5l176 -280l-53 -41l-246 219q-45 41 -58 67.5t-13 49.5z" />
<glyph unicode="&#xf3;" horiz-adv-x="1124" d="M92 483q0 127 40 224.5t106.5 164t150.5 100.5t174 34q88 0 173 -34t150.5 -100.5t106.5 -164t41 -224.5t-40 -223t-106.5 -160.5t-151.5 -97.5t-173 -33q-90 0 -175 33t-150.5 97.5t-105.5 160.5t-40 223zM285 483q0 -207 71.5 -314.5t206.5 -107.5q133 0 205 107.5 t72 314.5q0 209 -72 318.5t-205 109.5q-135 0 -206.5 -109.5t-71.5 -318.5zM459 1180l178 280q31 51 58.5 70.5t55.5 19.5q31 0 54.5 -18.5t23.5 -56.5q0 -23 -13 -49.5t-58 -67.5l-246 -219z" />
<glyph unicode="&#xf4;" horiz-adv-x="1124" d="M92 483q0 127 40 224.5t106.5 164t150.5 100.5t174 34q88 0 173 -34t150.5 -100.5t106.5 -164t41 -224.5t-40 -223t-106.5 -160.5t-151.5 -97.5t-173 -33q-90 0 -175 33t-150.5 97.5t-105.5 160.5t-40 223zM256 1182l270 360h70l270 -360l-49 -43l-256 217l-256 -217z M285 483q0 -207 71.5 -314.5t206.5 -107.5q133 0 205 107.5t72 314.5q0 209 -72 318.5t-205 109.5q-135 0 -206.5 -109.5t-71.5 -318.5z" />
<glyph unicode="&#xf5;" horiz-adv-x="1124" d="M92 483q0 127 40 224.5t106.5 164t150.5 100.5t174 34q88 0 173 -34t150.5 -100.5t106.5 -164t41 -224.5t-40 -223t-106.5 -160.5t-151.5 -97.5t-173 -33q-90 0 -175 33t-150.5 97.5t-105.5 160.5t-40 223zM223 1245q0 104 57.5 164.5t139.5 60.5q47 0 89 -23.5t87 -64.5 q41 -41 70.5 -61.5t62.5 -20.5q41 0 68.5 34t27.5 112h70q2 -10 3 -20.5t1 -26.5q0 -106 -57.5 -165.5t-139.5 -59.5q-47 0 -89 22.5t-87 65.5q-41 41 -69.5 60t-61.5 19q-41 0 -69.5 -33.5t-28.5 -111.5h-70q-2 10 -3 23.5t-1 25.5zM285 483q0 -207 71.5 -314.5 t206.5 -107.5q133 0 205 107.5t72 314.5q0 209 -72 318.5t-205 109.5q-135 0 -206.5 -109.5t-71.5 -318.5z" />
<glyph unicode="&#xf6;" horiz-adv-x="1124" d="M92 483q0 127 40 224.5t106.5 164t150.5 100.5t174 34q88 0 173 -34t150.5 -100.5t106.5 -164t41 -224.5t-40 -223t-106.5 -160.5t-151.5 -97.5t-173 -33q-90 0 -175 33t-150.5 97.5t-105.5 160.5t-40 223zM237 1313q0 49 34 80.5t83 31.5q47 0 83 -31.5t36 -80.5 q0 -47 -36 -79t-83 -32q-49 0 -83 32t-34 79zM285 483q0 -207 71.5 -314.5t206.5 -107.5q133 0 205 107.5t72 314.5q0 209 -72 318.5t-205 109.5q-135 0 -206.5 -109.5t-71.5 -318.5zM649 1313q0 49 36 80.5t83 31.5q49 0 83 -31.5t34 -80.5q0 -47 -34 -79t-83 -32 q-47 0 -83 32t-36 79z" />
<glyph unicode="&#xf7;" horiz-adv-x="1085" d="M59 616v119h967v-119h-967zM403 274q0 61 41 98.5t99 37.5q57 0 98 -37t41 -99q0 -59 -41 -98t-98 -39t-98.5 39t-41.5 98zM403 1077q0 61 41 99t99 38q57 0 98 -37.5t41 -99.5q0 -59 -41 -97t-98 -38t-98.5 38t-41.5 97z" />
<glyph unicode="&#xf8;" horiz-adv-x="1124" d="M92 483q0 127 40 224.5t106.5 164t150.5 100.5t174 34q74 0 144.5 -22.5t132.5 -70.5l88 111l67 -51l-94 -117q59 -66 96 -159t37 -214q0 -127 -40 -223t-106.5 -160.5t-151.5 -97.5t-173 -33q-80 0 -155.5 25.5t-139.5 77.5l-90 -113l-67 53l96 121q-53 63 -84 150.5 t-31 199.5zM285 483q0 -127 28 -219l445 551q-72 96 -195 96q-135 0 -206.5 -109.5t-71.5 -318.5zM352 176q72 -115 211 -115q133 0 205 107.5t72 314.5q0 152 -39 250z" />
<glyph unicode="&#xf9;" horiz-adv-x="1196" d="M51 885v71l301 29l21 -20l-11 -287v-318q0 -137 40 -191t124 -54q143 0 287 133l6 606l-145 31v71l297 29l20 -20l-6 -287v-574l141 -30v-74l-284 -20l-23 182q-84 -102 -176 -147.5t-186 -45.5q-61 0 -111.5 19.5t-85.5 63.5t-52.5 114t-17.5 172l7 516zM310 1475 q0 39 23.5 57t53.5 18q29 0 56.5 -19.5t60.5 -70.5l176 -280l-53 -41l-246 219q-45 41 -58 67.5t-13 49.5z" />
<glyph unicode="&#xfa;" horiz-adv-x="1196" d="M51 885v71l301 29l21 -20l-11 -287v-318q0 -137 40 -191t124 -54q143 0 287 133l6 606l-145 31v71l297 29l20 -20l-6 -287v-574l141 -30v-74l-284 -20l-23 182q-84 -102 -176 -147.5t-186 -45.5q-61 0 -111.5 19.5t-85.5 63.5t-52.5 114t-17.5 172l7 516zM463 1180 l178 280q31 51 58.5 70.5t55.5 19.5q31 0 54.5 -18.5t23.5 -56.5q0 -23 -13 -49.5t-58 -67.5l-246 -219z" />
<glyph unicode="&#xfb;" horiz-adv-x="1196" d="M51 885v71l301 29l21 -20l-11 -287v-318q0 -137 40 -191t124 -54q143 0 287 133l6 606l-145 31v71l297 29l20 -20l-6 -287v-574l141 -30v-74l-284 -20l-23 182q-84 -102 -176 -147.5t-186 -45.5q-61 0 -111.5 19.5t-85.5 63.5t-52.5 114t-17.5 172l7 516zM275 1182 l270 360h70l270 -360l-49 -43l-256 217l-256 -217z" />
<glyph unicode="&#xfc;" horiz-adv-x="1196" d="M51 885v71l301 29l21 -20l-11 -287v-318q0 -137 40 -191t124 -54q143 0 287 133l6 606l-145 31v71l297 29l20 -20l-6 -287v-574l141 -30v-74l-284 -20l-23 182q-84 -102 -176 -147.5t-186 -45.5q-61 0 -111.5 19.5t-85.5 63.5t-52.5 114t-17.5 172l7 516zM274 1313 q0 49 34 80.5t83 31.5q47 0 83 -31.5t36 -80.5q0 -47 -36 -79t-83 -32q-49 0 -83 32t-34 79zM686 1313q0 49 36 80.5t83 31.5q49 0 83 -31.5t34 -80.5q0 -47 -34 -79t-83 -32q-47 0 -83 32t-36 79z" />
<glyph unicode="&#xfd;" horiz-adv-x="1040" d="M-8 -371q10 43 49 64.5t86 21.5q41 0 75 -17t81 -63l6 -6q66 55 110.5 135t83.5 181l-368 921l-119 19v84h493v-86l-178 -21l254 -682l232 680l-176 25v84h399v-84l-115 -25l-307 -852q-49 -135 -97 -233.5t-98.5 -161t-104.5 -92t-118 -29.5q-78 0 -133 38t-55 99z M418 1180l178 280q31 51 58.5 70.5t55.5 19.5q31 0 54.5 -18.5t23.5 -56.5q0 -23 -13 -49.5t-58 -67.5l-246 -219z" />
<glyph unicode="&#xfe;" horiz-adv-x="1132" d="M12 -416l164 29q2 84 3 166t1 164v1366l-168 20v72l316 92l28 -16l-8 -291v-326q72 76 147.5 111t155.5 35q82 0 152.5 -35t123 -101.5t83 -161t30.5 -212.5q0 -119 -31.5 -216.5t-88 -166t-133 -106.5t-166.5 -38q-72 0 -140.5 29t-132.5 102v-157q0 -80 1 -163t3 -165 l187 -31v-71h-527v71zM354 190q59 -53 118.5 -78.5t113.5 -25.5q55 0 104 24.5t87 73.5t59.5 123t21.5 172q0 199 -71.5 304.5t-188.5 105.5q-47 0 -106.5 -22.5t-137.5 -86.5v-590z" />
<glyph unicode="&#xff;" horiz-adv-x="1040" d="M-8 -371q10 43 49 64.5t86 21.5q41 0 75 -17t81 -63l6 -6q66 55 110.5 135t83.5 181l-368 921l-119 19v84h493v-86l-178 -21l254 -682l232 680l-176 25v84h399v-84l-115 -25l-307 -852q-49 -135 -97 -233.5t-98.5 -161t-104.5 -92t-118 -29.5q-78 0 -133 38t-55 99z M237 1313q0 49 34 80.5t83 31.5q47 0 83 -31.5t36 -80.5q0 -47 -36 -79t-83 -32q-49 0 -83 32t-34 79zM649 1313q0 49 36 80.5t83 31.5q49 0 83 -31.5t34 -80.5q0 -47 -34 -79t-83 -32q-47 0 -83 32t-36 79z" />
<glyph unicode="&#x152;" horiz-adv-x="1921" d="M96 684q0 172 55.5 305t148.5 224.5t217 139.5t263 48q53 0 125 -7.5t158 -23.5h731l14 -364h-116l-45 260h-482q-4 -129 -4 -258v-260h301l29 196h94v-485h-94l-27 192h-303v-281t4 -268h523l45 263h116l-14 -365h-772q-86 -16 -157.5 -23.5t-125.5 -7.5q-139 0 -263 47 t-217 138.5t-148.5 224.5t-55.5 305zM317 684q0 -117 26 -227.5t80 -196.5t139 -137t206 -51q90 0 195 34q4 129 4 261.5v267.5v100v264t-4 265q-98 33 -195 32q-121 0 -206 -51t-139 -137t-80 -196.5t-26 -227.5z" />
<glyph unicode="&#x153;" horiz-adv-x="1779" d="M92 483q0 127 40 224.5t106.5 164t150.5 100.5t174 34q102 0 204.5 -51.5t166.5 -149.5q61 92 159.5 146.5t204.5 54.5q82 0 152 -27t122 -78t81.5 -125t29.5 -168q0 -35 -4 -62.5t-10 -49.5h-655q2 -188 92 -292t242 -104q98 0 166.5 43t115.5 105l49 -39 q-57 -117 -156.5 -178.5t-236.5 -61.5q-123 0 -214 49.5t-146 141.5q-66 -94 -165 -142.5t-200 -48.5q-90 0 -174 33t-149.5 97.5t-105.5 160.5t-40 223zM285 483q0 -207 71.5 -314.5t206.5 -107.5q133 0 205 107.5t72 314.5q0 209 -72 318.5t-205 109.5 q-135 0 -206.5 -109.5t-71.5 -318.5zM1018 584h375q72 0 96 28.5t24 77.5q0 45 -16 85t-46 71t-71 48t-90 17q-43 0 -87 -17t-83 -57t-66.5 -102.5t-35.5 -150.5z" />
<glyph unicode="&#x178;" horiz-adv-x="1292" d="M29 1286v84h577v-84l-194 -22l284 -619l293 617l-184 24v84h467v-84l-178 -26l-349 -717v-64v-164t5 -209l208 -22v-84h-618v84l209 22q4 111 4 209.5v163.5v53l-363 736zM340 1622q0 49 36 81t83 32q49 0 82.5 -32t33.5 -81q0 -47 -33.5 -80t-82.5 -33q-47 0 -83 33 t-36 80zM799 1622q0 49 33.5 81t82.5 32q47 0 83 -32t36 -81q0 -47 -36 -80t-83 -33q-49 0 -82.5 33t-33.5 80z" />
<glyph unicode="&#x2c6;" horiz-adv-x="819" d="M105 1182l270 360h70l270 -360l-49 -43l-256 217l-256 -217z" />
<glyph unicode="&#x2dc;" horiz-adv-x="819" d="M76 1245q0 104 57.5 164.5t139.5 60.5q47 0 89 -23.5t87 -64.5q41 -41 70.5 -61.5t62.5 -20.5q41 0 68.5 34t27.5 112h70q2 -10 3 -20.5t1 -26.5q0 -106 -57.5 -165.5t-139.5 -59.5q-47 0 -89 22.5t-87 65.5q-41 41 -69.5 60t-61.5 19q-41 0 -69.5 -33.5t-28.5 -111.5 h-70q-2 10 -3 23.5t-1 25.5z" />
<glyph unicode="&#x2000;" horiz-adv-x="930" />
<glyph unicode="&#x2001;" horiz-adv-x="1860" />
<glyph unicode="&#x2002;" horiz-adv-x="930" />
<glyph unicode="&#x2003;" horiz-adv-x="1860" />
<glyph unicode="&#x2004;" horiz-adv-x="620" />
<glyph unicode="&#x2005;" horiz-adv-x="465" />
<glyph unicode="&#x2006;" horiz-adv-x="310" />
<glyph unicode="&#x2007;" horiz-adv-x="310" />
<glyph unicode="&#x2008;" horiz-adv-x="232" />
<glyph unicode="&#x2009;" horiz-adv-x="372" />
<glyph unicode="&#x200a;" horiz-adv-x="103" />
<glyph unicode="&#x2010;" horiz-adv-x="638" d="M82 446v136h475v-136h-475z" />
<glyph unicode="&#x2011;" horiz-adv-x="638" d="M82 446v136h475v-136h-475z" />
<glyph unicode="&#x2012;" horiz-adv-x="638" d="M82 446v136h475v-136h-475z" />
<glyph unicode="&#x2013;" horiz-adv-x="1048" d="M82 446v136h885v-136h-885z" />
<glyph unicode="&#x2014;" horiz-adv-x="1662" d="M82 446v136h1499v-136h-1499z" />
<glyph unicode="&#x2018;" horiz-adv-x="434" d="M76 1094q0 68 22.5 130t60.5 119.5t89 105.5t108 85l39 -55q-74 -59 -119 -111.5t-79 -134.5l57 -53q47 -41 64.5 -77t17.5 -75q0 -61 -33 -91t-88 -30q-63 0 -111 41q-12 35 -20 71t-8 75z" />
<glyph unicode="&#x2019;" horiz-adv-x="434" d="M39 963q74 59 119 111t80 134l-58 54q-47 41 -64.5 76.5t-17.5 74.5q0 61 33 91t88 30q63 0 111 -41q12 -35 20 -71t8 -74q0 -68 -22.5 -130.5t-61 -120t-89 -105.5t-107.5 -85z" />
<glyph unicode="&#x201a;" horiz-adv-x="434" d="M39 -264q74 59 119 111t80 134l-58 54q-47 41 -64.5 76.5t-17.5 74.5q0 61 33 91t88 30q63 0 111 -41q12 -35 20 -71t8 -74q0 -68 -22.5 -130.5t-61 -120t-89 -105.5t-107.5 -85z" />
<glyph unicode="&#x201c;" horiz-adv-x="849" d="M76 1094q0 68 22.5 130t60.5 119.5t89 105.5t108 85l39 -55q-74 -59 -119 -111.5t-79 -134.5l57 -53q47 -41 64.5 -77t17.5 -75q0 -61 -33 -91t-88 -30q-63 0 -111 41q-12 35 -20 71t-8 75zM492 1094q0 68 22.5 130t60.5 119.5t89 105.5t108 85l39 -55 q-74 -59 -119 -111.5t-79 -134.5l57 -53q47 -41 64.5 -77t17.5 -75q0 -61 -33 -91t-88 -30q-63 0 -111 41q-12 35 -20 71t-8 75z" />
<glyph unicode="&#x201d;" horiz-adv-x="849" d="M39 963q74 59 119 111t80 134l-58 54q-47 41 -64.5 76.5t-17.5 74.5q0 61 33 91t88 30q63 0 111 -41q12 -35 20 -71t8 -74q0 -68 -22.5 -130.5t-61 -120t-89 -105.5t-107.5 -85zM455 963q74 59 119 111t80 134l-58 54q-47 41 -64.5 76.5t-17.5 74.5q0 61 33 91t88 30 q63 0 111 -41q12 -35 20 -71t8 -74q0 -68 -22.5 -130.5t-61 -120t-89 -105.5t-107.5 -85z" />
<glyph unicode="&#x201e;" horiz-adv-x="849" d="M39 -264q74 59 119 111t80 134l-58 54q-47 41 -64.5 76.5t-17.5 74.5q0 61 33 91t88 30q63 0 111 -41q12 -35 20 -71t8 -74q0 -68 -22.5 -130.5t-61 -120t-89 -105.5t-107.5 -85zM455 -264q74 59 119 111t80 134l-58 54q-47 41 -64.5 76.5t-17.5 74.5q0 61 33 91t88 30 q63 0 111 -41q12 -35 20 -71t8 -74q0 -68 -22.5 -130.5t-61 -120t-89 -105.5t-107.5 -85z" />
<glyph unicode="&#x2022;" horiz-adv-x="624" d="M84 676q0 51 18.5 95t50 75t72.5 48t88 17q45 0 86 -17t73 -48t50.5 -75t18.5 -95q0 -53 -18.5 -96t-50.5 -74t-73 -48.5t-86 -17.5q-47 0 -88 17.5t-72.5 48.5t-50 74t-18.5 96z" />
<glyph unicode="&#x2026;" horiz-adv-x="1966" d="M162 115q0 61 42 104t103 43t103.5 -43t42.5 -104q0 -59 -42.5 -102.5t-103.5 -43.5t-103 43t-42 103zM838 115q0 61 42 104t103 43t103.5 -43t42.5 -104q0 -59 -42.5 -102.5t-103.5 -43.5t-103 43t-42 103zM1514 115q0 61 42 104t103 43t103.5 -43t42.5 -104 q0 -59 -42.5 -102.5t-103.5 -43.5t-103 43t-42 103z" />
<glyph unicode="&#x202f;" horiz-adv-x="372" />
<glyph unicode="&#x2039;" horiz-adv-x="577" d="M61 461v112l414 357l51 -58l-305 -354l305 -356l-51 -58z" />
<glyph unicode="&#x203a;" horiz-adv-x="577" d="M51 162l305 356l-305 354l51 58l414 -357v-112l-414 -357z" />
<glyph unicode="&#x205f;" horiz-adv-x="465" />
<glyph unicode="&#x20ac;" d="M23 479v105h108q-2 18 -2 36.5v38.5v31t2 31h-108v102h118q18 123 62.5 220.5t111 165t153.5 104.5t189 37q147 0 236.5 -74t107.5 -193q-10 -37 -38.5 -55t-61.5 -18q-37 0 -66.5 28.5t-52.5 108.5l-30 106q-18 4 -35 4h-27q-141 0 -235.5 -110.5t-122.5 -323.5h456 v-102h-464q-2 -16 -2 -30.5v-31.5v-38.5t2 -36.5h464v-105h-454q29 -205 121 -311.5t233 -106.5q25 0 62 7l26 102q20 84 55 110.5t72 26.5q35 0 59.5 -17.5t30.5 -51.5q-16 -119 -111.5 -194t-240.5 -75q-199 0 -330 135.5t-168 374.5h-120z" />
<glyph unicode="&#x2122;" horiz-adv-x="1478" d="M25 1196l4 174h536l4 -174h-69l-17 115h-121v-475l84 -11v-57h-301v57l84 11v475h-120l-17 -115h-67zM635 768v57l80 13v469l-70 6v57h182l201 -414l193 414h196v-57l-74 -6v-473l74 -9v-57h-282v57l75 9v383l-202 -449h-35l-199 434v-364l80 -13v-57h-219z" />
<glyph unicode="&#x25fc;" horiz-adv-x="972" d="M0 0v973h973v-973h-973z" />
</font>
</defs>
</svg>
